<svg width="280" height="121" viewBox="0 0 280 121" fill="none" xmlns="http://www.w3.org/2000/svg">
  <path d="M3.80447 120.348H0V102.586H6.11308C7.23204 102.586 8.23322 102.703 9.12839 102.939C10.0236 103.175 10.7892 103.54 11.4252 104.023C12.0612 104.506 12.5442 105.118 12.8857 105.872C13.2273 106.626 13.3922 107.509 13.3922 108.522C13.3922 109.523 13.2156 110.407 12.874 111.184C12.5324 111.961 12.0259 112.621 11.3663 113.151C10.7067 113.681 9.90578 114.093 8.95171 114.364C8.00943 114.647 6.93757 114.788 5.75972 114.788H3.80447V120.348ZM3.7338 111.443H5.81861C6.97291 111.443 7.86808 111.219 8.50412 110.772C9.15194 110.324 9.46997 109.629 9.46997 108.675C9.46997 107.674 9.15195 106.967 8.52769 106.555C7.90342 106.143 7.00825 105.931 5.84217 105.931H3.7338V111.443Z"
        fill="white"/>
  <path d="M24.9116 120.654C23.6278 120.654 22.4499 120.454 21.4016 120.053C20.3415 119.653 19.4346 119.064 18.669 118.286C17.9034 117.509 17.3145 116.543 16.9022 115.413C16.49 114.27 16.278 112.951 16.278 111.467C16.278 109.983 16.49 108.663 16.9258 107.521C17.3616 106.378 17.9505 105.424 18.7161 104.647C19.4817 103.87 20.3769 103.281 21.4134 102.88C22.4499 102.48 23.5807 102.279 24.8056 102.279C26.1719 102.279 27.3969 102.491 28.4688 102.915C29.5406 103.339 30.4476 103.94 31.1778 104.729C31.9081 105.519 32.4735 106.484 32.8622 107.627C33.2508 108.769 33.4511 110.053 33.4511 111.467C33.4511 113.045 33.2391 114.4 32.8033 115.566C32.3675 116.72 31.7668 117.674 31.0012 118.428C30.2355 119.182 29.3286 119.735 28.2921 120.1C27.2556 120.466 26.1366 120.654 24.9116 120.654ZM25.0412 117.309C25.689 117.309 26.2779 117.191 26.8198 116.956C27.3616 116.72 27.8209 116.355 28.2096 115.872C28.5983 115.389 28.8928 114.788 29.1048 114.058C29.3168 113.328 29.4228 112.468 29.4228 111.467C29.4228 109.453 28.9988 107.98 28.1507 107.038C27.3027 106.096 26.1837 105.625 24.8056 105.625C24.1814 105.625 23.5924 105.742 23.0388 105.978C22.4852 106.213 22.0141 106.579 21.6019 107.062C21.2014 107.544 20.8834 108.157 20.6478 108.887C20.424 109.617 20.3062 110.477 20.3062 111.467C20.3062 112.468 20.424 113.328 20.6714 114.058C20.9187 114.788 21.2485 115.389 21.6725 115.872C22.0965 116.355 22.5913 116.708 23.1684 116.956C23.7573 117.191 24.3816 117.309 25.0412 117.309Z"
        fill="white"/>
  <path d="M50.5064 119.641C50.2709 119.759 50.0117 119.877 49.7291 119.994C49.4464 120.112 49.1166 120.218 48.7397 120.324C48.3628 120.43 47.9152 120.501 47.4205 120.56C46.9258 120.619 46.3486 120.642 45.7126 120.642C44.358 120.642 43.1331 120.442 42.0259 120.053C40.9187 119.665 39.9764 119.099 39.1873 118.345C38.3981 117.592 37.7974 116.661 37.3616 115.542C36.9258 114.423 36.7137 113.139 36.7137 111.691C36.7137 110.171 36.9258 108.817 37.3616 107.639C37.7974 106.461 38.4099 105.483 39.2226 104.682C40.0353 103.893 41.0247 103.292 42.179 102.88C43.3333 102.48 44.6407 102.268 46.1013 102.268C47.0671 102.268 47.9269 102.35 48.7043 102.527C49.4699 102.692 50.0942 102.892 50.5653 103.116L49.7291 106.308C49.1872 106.119 48.6337 105.99 48.0801 105.907C47.5265 105.825 47.0435 105.778 46.6313 105.778C45.7479 105.778 44.947 105.884 44.2402 106.108C43.5218 106.331 42.9093 106.673 42.391 107.132C41.8728 107.603 41.4723 108.192 41.1896 108.911C40.9069 109.629 40.7538 110.477 40.7538 111.467C40.7538 113.351 41.2838 114.765 42.3439 115.707C43.404 116.661 44.8292 117.132 46.6195 117.132C47.0318 117.132 47.5147 117.073 48.0918 116.967C48.669 116.861 49.2226 116.685 49.7644 116.449L50.5064 119.641Z"
        fill="white"/>
  <path d="M64.9705 116.473H58.1507L56.8786 120.36H53.1213L59.1872 102.598H64.1342L70.1177 120.36H66.2308L64.9705 116.473ZM59.1872 113.116H63.934L61.5783 105.66L59.1872 113.116Z"
        fill="white"/>
  <path d="M78.775 120.348H74.9705V106.096H69.9175V102.598H83.7927V106.096H78.775V120.348Z" fill="white"/>
  <path d="M94.1932 120.654C92.9093 120.654 91.7315 120.454 90.6832 120.053C89.6231 119.653 88.7162 119.064 87.9506 118.286C87.1849 117.509 86.596 116.543 86.1838 115.413C85.7715 114.27 85.5595 112.951 85.5595 111.467C85.5595 109.983 85.7715 108.663 86.2073 107.521C86.6431 106.378 87.2321 105.424 87.9977 104.647C88.7633 103.87 89.6584 103.281 90.695 102.88C91.7315 102.48 92.8622 102.279 94.0872 102.279C95.4535 102.279 96.6785 102.491 97.7503 102.915C98.8222 103.339 99.7291 103.94 100.459 104.729C101.19 105.519 101.755 106.484 102.144 107.627C102.532 108.769 102.733 110.053 102.733 111.467C102.733 113.045 102.521 114.4 102.085 115.566C101.649 116.72 101.048 117.674 100.283 118.428C99.5171 119.182 98.6102 119.735 97.5736 120.1C96.5371 120.466 95.4064 120.654 94.1932 120.654ZM94.3227 117.309C94.9706 117.309 95.5595 117.191 96.1013 116.956C96.6431 116.72 97.1025 116.355 97.4912 115.872C97.8799 115.389 98.1743 114.788 98.3864 114.058C98.5984 113.328 98.7044 112.468 98.7044 111.467C98.7044 109.453 98.2804 107.98 97.4323 107.038C96.5842 106.096 95.4653 105.625 94.0872 105.625C93.4629 105.625 92.874 105.742 92.3204 105.978C91.7668 106.213 91.2957 106.579 90.8834 107.062C90.483 107.544 90.1649 108.157 89.9294 108.887C89.7056 109.617 89.5878 110.477 89.5878 111.467C89.5878 112.468 89.7056 113.328 89.9529 114.058C90.2003 114.788 90.5301 115.389 90.9541 115.872C91.3781 116.355 91.8728 116.708 92.45 116.956C93.0389 117.191 93.6631 117.309 94.3227 117.309Z"
        fill="white"/>
  <path d="M126.49 120.348H122.662L121.696 108.546L118.045 120.348H114.417L110.813 108.605L109.847 120.348H106.019L107.797 102.586H112.344L116.349 115.978L120.306 102.586H124.7L126.49 120.348Z"
        fill="white"/>
  <path d="M72.556 44.4113C72.5442 49.5586 68.3746 53.7164 63.2391 53.7164C58.1037 53.7164 53.9341 49.535 53.9341 44.3995C53.9341 39.2523 58.1155 35.0945 63.2509 35.0945C68.3981 35.0945 72.556 39.2641 72.556 44.4113Z"
        fill="white"/>
  <path d="M63.3333 0.0769043C56.6195 0.0769043 50.2473 1.57278 44.5347 4.23474C52.1319 3.45735 60.0118 6.72001 65.8421 12.5975C68.7514 15.4715 71.3074 19.2053 73.4747 23.6929C85.8304 25.9073 94.2167 19.7707 97.5265 16.1429C89.3875 6.31954 77.0907 0.0769043 63.3333 0.0769043Z"
        fill="white"/>
  <path d="M36.596 9.00499C30.5065 13.5986 25.6419 19.7235 22.5795 26.8024C26.2662 27.7094 37.3144 31.3018 42.3792 44.9532C43.8987 44.4585 47.1849 42.5503 49.4699 35.1652C52.2614 26.1193 57.3616 17.4031 63.9693 13.5397C56.6784 6.48439 45.6301 3.3984 36.596 9.00499Z"
        fill="white"/>
  <path d="M101.779 66.5667C105.135 60.7599 107.032 54.5055 107.574 48.2393C104.452 55.2004 97.6796 60.383 89.6702 62.4795C89.6702 62.4795 89.6702 62.4795 89.6702 62.4913C85.7243 63.5749 81.2132 63.9165 76.2308 63.5396C68.139 73.1156 69.2579 83.4336 70.7656 88.1097C83.3333 85.966 94.8998 78.4631 101.779 66.5667Z"
        fill="white"/>
  <path d="M107.397 38.9813C106.455 31.4195 103.581 24.1521 98.9753 17.9684C96.3487 20.701 87.7032 28.4631 73.3216 26.0131C72.9918 27.5797 73.0036 31.3724 78.2686 37.0379C84.7114 43.9754 89.7409 52.7387 89.788 60.383C99.5407 57.615 107.75 49.5938 107.397 38.9813Z"
        fill="white"/>
  <path d="M24.8763 66.555C28.2332 72.3618 32.709 77.1321 37.8798 80.7246C33.404 74.5526 32.2968 66.0956 34.4876 58.1215C35.5241 54.1639 37.4793 50.1003 40.2944 45.9778C36.0424 34.1875 26.5135 30.0061 21.7196 28.9696C17.2673 40.9131 17.9976 54.6704 24.8763 66.555Z"
        fill="white"/>
  <path d="M45.9953 85.2123C53.0271 88.1805 60.7656 89.3231 68.4452 88.4397C67.3851 84.8001 64.9823 73.4456 74.2874 62.2441C73.0978 61.1723 69.788 59.2877 62.2497 61.0074C53.0035 63.104 42.8857 63.0686 36.2426 59.2877C33.7574 69.0993 36.6078 80.2064 45.9953 85.2123Z"
        fill="white"/>
  <path d="M249.929 59.7706C249.458 59.4644 249.034 59.1463 248.598 58.8401H248.575C248.08 59.2052 247.574 59.5586 247.055 59.9237C242.532 63.2806 238.94 67.25 236.007 71.5492H261.131C258.186 67.1911 254.499 63.151 249.929 59.7706Z"
        fill="white"/>
  <path d="M227.856 28.4037C227.845 28.3804 227.845 28.357 227.833 28.3336C227.845 28.357 227.845 28.3804 227.856 28.4037Z"
        fill="white"/>
  <path d="M259.458 29.2287C258.787 30.1121 258.163 30.9484 257.538 31.7611C260.848 33.363 264.04 34.4938 267.032 35.0827C272.332 22.0792 273.027 8.87539 273.051 3.19812C271.084 10.7835 266.137 20.3124 259.458 29.2287Z"
        fill="white"/>
  <path d="M237.503 12.6799C240.907 8.08626 244.723 3.73997 248.575 0.0650635H225.065C227.962 5.30652 231.59 10.3242 235.83 15.0121C236.431 14.1404 236.973 13.3866 237.503 12.6799Z"
        fill="white"/>
  <path d="M235.159 15.9779C230.777 11.1723 227.102 6.08392 224.146 0.783569C224.134 1.21938 224.134 1.91431 224.134 2.7977C224.134 7.47379 224.594 17.5445 227.868 28.3925C229.812 24.3643 232.226 20.23 235.065 16.1193C235.1 16.0721 235.124 16.025 235.159 15.9779Z"
        fill="white"/>
  <path d="M256.714 32.8094C250.695 40.1592 244.276 46.0956 238.634 49.5467C241.366 52.9743 244.653 56.1074 248.575 58.7929H248.598C256.714 53.2452 262.156 45.7069 265.783 37.9213C266.042 37.3206 266.302 36.7316 266.584 36.1545C263.498 35.5184 260.212 34.3524 256.808 32.6798C256.784 32.7269 256.749 32.774 256.714 32.8094Z"
        fill="white"/>
  <path d="M237.962 48.628C243.498 45.2593 249.811 39.4172 255.76 32.1733C249.128 28.7693 242.25 23.5632 235.96 16.8376C233.074 21.0308 230.612 25.2358 228.669 29.3229C228.645 29.3818 228.61 29.4407 228.587 29.5114L228.375 30.0532C230.377 36.3547 233.369 42.8212 237.927 48.6515L237.962 48.628Z"
        fill="white"/>
  <path d="M224.982 98.522H219.317L218.269 101.749H215.147L220.177 87.0026H224.287L229.258 101.749H226.031L224.982 98.522ZM220.177 95.7423H224.111L222.156 89.5467L220.177 95.7423Z"
        fill="white"/>
  <path d="M237.68 101.737H234.523V89.9H230.33V86.9907H241.849V89.9H237.68V101.737Z" fill="white"/>
  <path d="M251.731 101.997C250.66 101.997 249.694 101.832 248.81 101.502C247.927 101.172 247.173 100.689 246.549 100.041C245.913 99.3936 245.43 98.5927 245.088 97.6504C244.747 96.6964 244.57 95.6127 244.57 94.376C244.57 93.1392 244.747 92.0438 245.112 91.1015C245.465 90.1475 245.96 89.3583 246.596 88.7105C247.232 88.0627 247.974 87.5797 248.834 87.2499C249.694 86.9201 250.636 86.7552 251.649 86.7552C252.791 86.7552 253.804 86.9319 254.688 87.2853C255.583 87.6386 256.337 88.1333 256.938 88.7929C257.55 89.4525 258.009 90.2417 258.339 91.1958C258.657 92.1498 258.822 93.2099 258.822 94.3878C258.822 95.6952 258.645 96.8259 258.28 97.7918C257.927 98.7576 257.42 99.5468 256.784 100.171C256.148 100.795 255.395 101.255 254.535 101.561C253.687 101.844 252.744 101.997 251.731 101.997ZM251.837 99.217C252.367 99.217 252.862 99.1227 253.31 98.9225C253.757 98.7223 254.146 98.4278 254.464 98.0273C254.782 97.6269 255.041 97.1204 255.206 96.5197C255.383 95.919 255.465 95.2005 255.465 94.376C255.465 92.7034 255.112 91.4784 254.417 90.7011C253.71 89.9237 252.792 89.535 251.637 89.535C251.119 89.535 250.624 89.6292 250.177 89.8295C249.717 90.0297 249.329 90.3241 248.987 90.7246C248.645 91.1251 248.386 91.6316 248.198 92.244C248.009 92.8565 247.915 93.5633 247.915 94.3878C247.915 95.2123 248.021 95.9307 248.221 96.5314C248.422 97.1321 248.704 97.6386 249.058 98.0391C249.411 98.4396 249.823 98.734 250.306 98.9343C250.777 99.111 251.296 99.217 251.837 99.217Z"
        fill="white"/>
  <path d="M279.8 101.737H276.62L275.819 91.9377L272.78 101.737H269.764L266.773 91.9848L265.972 101.737H262.792L264.264 86.9907H268.033L271.366 98.1097L274.652 86.9907H278.304L279.8 101.737Z"
        fill="white"/>
  <path d="M215.677 118.074C215.984 118.298 216.408 118.51 216.938 118.722C217.468 118.934 218.08 119.04 218.775 119.04C219.67 119.04 220.342 118.852 220.777 118.463C221.213 118.074 221.437 117.533 221.437 116.826C221.437 116.437 221.39 116.119 221.296 115.848C221.201 115.589 221.048 115.353 220.836 115.153C220.624 114.953 220.353 114.776 220.024 114.623C219.694 114.47 219.305 114.305 218.846 114.129L218.386 113.952C217.903 113.763 217.479 113.563 217.103 113.351C216.737 113.139 216.431 112.892 216.196 112.597C215.96 112.303 215.783 111.973 215.654 111.584C215.536 111.196 215.477 110.748 215.477 110.242C215.477 109.158 215.854 108.31 216.62 107.709C217.385 107.108 218.433 106.802 219.788 106.802C220.2 106.802 220.577 106.826 220.942 106.885C221.296 106.944 221.614 107.014 221.896 107.085C222.167 107.167 222.403 107.238 222.58 107.321C222.756 107.403 222.886 107.474 222.968 107.521L222.521 109.005C222.038 108.769 221.543 108.616 221.037 108.534C220.542 108.451 220.082 108.404 219.67 108.404C218.916 108.404 218.339 108.557 217.927 108.852C217.527 109.158 217.326 109.606 217.326 110.23C217.326 110.501 217.362 110.736 217.421 110.948C217.479 111.16 217.609 111.361 217.797 111.549C217.986 111.737 218.245 111.926 218.575 112.114C218.905 112.303 219.34 112.491 219.859 112.703L220.353 112.892C220.942 113.127 221.425 113.363 221.802 113.622C222.179 113.881 222.474 114.164 222.697 114.47C222.909 114.776 223.062 115.118 223.145 115.483C223.227 115.848 223.274 116.249 223.274 116.684C223.274 117.321 223.168 117.886 222.956 118.381C222.744 118.863 222.45 119.276 222.061 119.606C221.673 119.935 221.213 120.194 220.683 120.371C220.153 120.548 219.564 120.63 218.928 120.63C218.21 120.63 217.527 120.536 216.879 120.348C216.231 120.159 215.666 119.912 215.194 119.606L215.677 118.074Z"
        fill="white"/>
  <path d="M229.788 113.151L235.713 107.003H237.892L231.72 113.316L238.292 120.465H235.96L230.459 114.352L229.788 115.012V120.477H228.057V107.003H229.788V113.151Z"
        fill="white"/>
  <path d="M243.722 120.465H241.991V107.003H243.722V120.465Z" fill="white"/>
  <path d="M256.631 120.465H249.093V107.003H250.825V118.852H256.631V120.465Z" fill="white"/>
  <path d="M268.575 120.465H261.037V107.003H262.768V118.852H268.575V120.465Z" fill="white"/>
  <path d="M272.403 118.074C272.709 118.298 273.133 118.51 273.663 118.722C274.193 118.934 274.806 119.04 275.501 119.04C276.396 119.04 277.067 118.852 277.503 118.463C277.939 118.074 278.163 117.533 278.163 116.826C278.163 116.437 278.116 116.119 278.021 115.848C277.927 115.589 277.774 115.353 277.562 115.153C277.35 114.953 277.079 114.776 276.749 114.623C276.419 114.47 276.031 114.305 275.571 114.129L275.112 113.952C274.629 113.763 274.205 113.563 273.828 113.351C273.463 113.139 273.157 112.892 272.921 112.597C272.686 112.303 272.509 111.973 272.379 111.584C272.262 111.196 272.203 110.748 272.203 110.242C272.203 109.158 272.58 108.31 273.345 107.709C274.111 107.108 275.159 106.802 276.514 106.802C276.926 106.802 277.303 106.826 277.668 106.885C278.021 106.944 278.339 107.014 278.622 107.085C278.893 107.167 279.129 107.238 279.305 107.321C279.482 107.403 279.611 107.474 279.694 107.521L279.246 109.005C278.763 108.769 278.269 108.616 277.762 108.534C277.268 108.451 276.808 108.404 276.396 108.404C275.642 108.404 275.065 108.557 274.653 108.852C274.252 109.158 274.052 109.606 274.052 110.23C274.052 110.501 274.087 110.736 274.146 110.948C274.205 111.16 274.335 111.361 274.523 111.549C274.712 111.737 274.971 111.926 275.3 112.114C275.63 112.303 276.066 112.491 276.584 112.703L277.079 112.892C277.668 113.127 278.151 113.363 278.528 113.622C278.905 113.881 279.199 114.164 279.423 114.47C279.635 114.776 279.788 115.118 279.871 115.483C279.953 115.848 280 116.249 280 116.684C280 117.321 279.894 117.886 279.682 118.381C279.47 118.863 279.176 119.276 278.787 119.606C278.398 119.935 277.939 120.194 277.409 120.371C276.879 120.548 276.29 120.63 275.654 120.63C274.935 120.63 274.252 120.536 273.604 120.348C272.957 120.159 272.391 119.912 271.92 119.606L272.403 118.074Z"
        fill="white"/>
  <path d="M170.813 0.0769043V120.348" stroke="white" stroke-miterlimit="10"/>
</svg>
