<svg width="1221" height="620" viewBox="0 0 1221 620" fill="none" xmlns="http://www.w3.org/2000/svg">
<path d="M312.002 310.359C306.831 312.227 301.66 314.022 296.345 315.746C300.175 309.186 303.91 302.483 307.549 295.635C327.157 258.503 341.809 220.867 350.715 189.911C354.522 190.27 358.185 190.629 361.704 191.06C352.367 224.099 336.925 263.315 317.174 300.735C315.45 303.943 313.726 307.151 312.002 310.359V310.359Z" fill="white"/>
<path d="M133.018 340.74C129.187 340.549 125.5 340.31 121.957 340.022C131.007 304.254 146.808 263.746 168.714 222.232C169.289 221.226 169.791 220.221 170.366 219.215C175.25 217.491 180.35 215.911 185.521 214.259C183.079 218.569 180.685 222.926 178.339 227.331C156.504 268.63 141.637 307.343 133.018 340.74V340.74Z" fill="white"/>
<path d="M215.04 318.619C238.814 330.254 263.234 337.796 285.715 340.74C283.488 344.26 281.262 347.779 278.963 351.155C256.77 347.636 233.068 340.022 210.084 328.818C187.604 317.901 168.068 304.757 152.41 290.751C153.918 286.945 155.499 283.138 157.151 279.26C172.593 293.84 192.344 307.558 215.04 318.619Z" fill="white"/>
<path d="M370.754 323.79C361.417 342.967 338.433 353.525 306.041 353.525C301.229 353.525 296.273 353.166 291.173 352.735C293.472 349.144 295.698 345.553 297.997 341.89C300.726 342.033 303.455 342.177 306.041 342.177C333.477 342.177 353.372 333.63 360.627 318.834C367.737 304.254 362.781 284.431 346.693 263.171C329.814 240.834 302.881 219.933 270.847 204.276C239.748 189.121 207.427 180.79 179.847 180.79C152.41 180.79 132.515 189.265 125.333 204.132C116.57 221.944 126.626 247.011 148.819 270.928C147.095 274.878 145.515 278.757 143.935 282.707C115.637 254.05 103.498 222.806 115.134 199.105C124.471 179.999 147.454 169.441 179.847 169.441C209.079 169.441 243.195 178.204 275.803 194.077C309.416 210.453 337.787 232.574 355.743 256.348C374.56 281.199 379.875 305.188 370.754 323.79V323.79Z" fill="white"/>
<path d="M303.455 325.298C254.04 409.619 194.498 466.503 153.774 466.503C147.526 466.503 141.708 465.139 136.609 462.481C111.973 449.409 106.874 407.034 119.227 351.155C122.819 351.49 126.482 351.753 130.216 351.945C118.222 405.166 123.106 442.945 141.708 452.785C145.227 454.653 149.321 455.586 153.774 455.586C187.962 455.586 242.333 403.73 287.582 330.398C292.945 328.77 298.236 327.07 303.455 325.298V325.298Z" fill="white"/>
<path d="M357.968 288.453C359.405 292.26 360.482 295.923 361.129 299.514C332.04 313.735 297.206 325.873 259.858 334.492C257.2 335.138 254.614 335.641 251.957 336.216C244.99 334.133 237.951 331.691 230.841 328.89C239.603 327.31 248.438 325.514 257.344 323.431C294.62 314.812 329.383 302.674 357.968 288.453V288.453Z" fill="white"/>
<path d="M222.294 189.337C229.476 191.204 236.802 193.502 244.057 196.16C238.957 197.165 233.786 198.315 228.543 199.464C186.454 209.232 150.758 222.519 123.178 236.812C121.813 233.005 120.951 229.199 120.448 225.608C148.531 211.315 183.366 198.602 222.294 189.337Z" fill="white"/>
<path d="M229.62 340.597C203.117 345.122 177.333 347.564 153.703 347.564C93.0118 347.564 54.8017 332.553 48.6967 306.409C43.2381 282.635 67.299 255.127 109.818 231.281C110.465 234.944 111.542 238.679 112.907 242.414C75.415 263.818 55.879 286.945 59.7575 303.895C64.426 323.79 100.41 336.216 153.703 336.216C171.371 336.216 190.404 334.779 209.94 332.122C216.5 335.234 223.06 338.059 229.62 340.597Z" fill="white"/>
<path d="M390.505 283.066C384.616 286.873 378.295 290.608 371.544 294.127C370.73 290.536 369.557 286.897 368.024 283.21C373.77 280.05 379.229 276.818 384.4 273.514C414.494 254.193 429.649 234.37 426.13 219.072C421.533 199.105 385.549 186.751 332.185 186.751C311.212 186.751 288.372 188.69 264.958 192.425C258.254 189.456 251.575 186.799 244.919 184.453C275.3 178.563 305.179 175.403 332.185 175.403C392.875 175.403 431.157 190.342 437.191 216.486C441.931 237.027 425.34 260.657 390.505 283.066V283.066Z" fill="white"/>
<path d="M240.321 293.912C222.94 293.912 208.935 279.906 208.935 262.453C208.935 245.071 222.94 231.066 240.321 231.066C257.703 231.066 271.78 245.071 271.78 262.453C271.78 279.906 257.703 293.912 240.321 293.912Z" fill="white"/>
<path d="M178.338 204.635C183.461 195.729 188.68 187.11 193.995 178.778C197.946 179.137 201.968 179.64 206.062 180.358C201.896 186.727 197.778 193.287 193.708 200.038C188.489 201.522 183.366 203.055 178.338 204.635V204.635Z" fill="white"/>
<path d="M200.891 168.077C246.068 100.347 296.344 56.3911 332.112 56.3911C338.361 56.3911 344.179 57.7558 349.278 60.4851C375.494 74.347 379.588 121.463 364.074 182.585C360.53 182.106 356.891 181.723 353.157 181.436C368.239 122.684 364.002 80.5956 344.179 70.1094C340.659 68.242 336.565 67.3083 332.112 67.3083C301.515 67.3083 254.902 108.75 212.957 170.016C208.887 169.202 204.865 168.556 200.891 168.077V168.077Z" fill="white"/>
<path d="M457.66 551.471V427.36L399.124 501.122L340.3 427.36V551.471H313.366V377.011H329.024L399.124 465.426L469.151 377.011H484.594V551.471H457.66Z" fill="white"/>
<path d="M614.522 551.471V428.365L522.229 551.471H506.571V377.011H533.505V500.117L625.727 377.011H641.456V551.471H614.522Z" fill="white"/>
<path d="M1033.11 551.471V428.365L940.817 551.471H925.159V377.011H952.093V500.117L1044.31 377.011H1060.04V551.471H1033.11Z" fill="white"/>
<path d="M914.457 455.227C914.457 495.376 886.23 527.051 844.86 527.051C831.142 527.051 818.716 522.382 809.235 514.984V487.332C817.423 496.238 829.131 501.625 842.346 501.625C867.772 501.625 887.739 482.161 887.739 455.227C887.739 428.365 867.772 408.614 842.346 408.614C818.07 408.614 798.821 426.641 797.169 451.708L797.097 451.851V551.542L769.804 551.471V501.338C760.324 516.564 742.368 527.051 721.683 527.051C680.097 527.051 651.87 495.376 651.87 455.227C651.87 415.15 680.097 383.188 721.683 383.188C735.616 383.188 748.257 388.144 757.954 396.116V423.337C749.694 414.216 737.915 408.614 724.412 408.614C698.986 408.614 679.091 428.365 679.091 455.227C679.091 482.161 698.986 501.625 724.412 501.625C749.909 501.625 769.804 482.161 769.804 455.227V377.011H796.738V409.116C806.219 393.962 824.175 383.188 844.86 383.188C886.23 383.188 914.457 415.15 914.457 455.227V455.227Z" fill="white"/>
<path d="M819.363 319.193V288.094H788.048V319.193H772.104V243.276H788.048V274.016H819.363V243.276H835.38V319.193H819.363Z" fill="white"/>
<path d="M901.099 319.193V271.359L862.745 319.193H853.408V243.276H869.353V291.11L907.635 243.276H917.116V319.193H901.099Z" fill="white"/>
<path fill-rule="evenodd" clip-rule="evenodd" d="M978.596 319.193V300.663H969.69C961.789 300.878 959.778 302.602 953.458 311.58L948.286 319.193H930.402L937.297 309.066C942.397 301.74 945.916 297.862 949.436 295.779C938.447 291.757 931.982 283.21 931.982 271.933C931.982 255.917 944.336 243.276 967.032 243.276H994.541V319.193H978.596ZM965.524 257.425C955.11 257.425 946.994 262.309 946.994 271.933C946.994 282.132 955.11 286.585 965.524 286.585H978.596V257.425H965.524Z" fill="white"/>
<path d="M1021.04 319.193L1037.71 291.757L1008.33 243.276H1026.43L1046.83 276.387L1067.01 243.276H1085.18L1039.07 319.193H1021.04Z" fill="white"/>
</svg>
