<svg width="272" height="130" viewBox="0 0 272 130" fill="none" xmlns="http://www.w3.org/2000/svg">
<path d="M69.8002 66.6C68.4002 67.0666 67.0335 67.5333 65.7002 68C66.7002 66.2666 67.6669 64.5 68.6002 62.7C73.7002 53 77.5002 43.2 79.9002 35.1C80.9002 35.1666 81.8669 35.2666 82.8002 35.4C80.3002 44 76.3002 54.3 71.1002 64.1C70.6335 64.9 70.2002 65.7333 69.8002 66.6V66.6Z" fill="white"/>
<path d="M23.0006 74.4999C22.0006 74.4999 21.0339 74.4332 20.1006 74.2999C22.5006 64.9999 26.6006 54.3999 32.3006 43.5999C32.4339 43.3332 32.6006 43.0665 32.8006 42.7999C34.0673 42.3332 35.3673 41.8999 36.7006 41.4999C36.1006 42.6332 35.4673 43.7665 34.8006 44.8999C29.1006 55.6999 25.3006 65.7999 23.0006 74.4999V74.4999Z" fill="white"/>
<path d="M44.4006 68.7999C50.6006 71.7999 57.0006 73.7999 62.9006 74.4999C62.3006 75.4332 61.7006 76.3665 61.1006 77.2999C55.3006 76.2999 49.1006 74.2999 43.1006 71.3999C37.3006 68.5999 32.2006 65.0999 28.1006 61.4999C28.5006 60.4999 28.9006 59.4999 29.3006 58.4999C33.3006 62.2999 38.5006 65.8999 44.4006 68.7999V68.7999Z" fill="white"/>
<path d="M85.1005 70.0999C82.7005 75.0999 76.7005 77.8999 68.2005 77.8999C66.9338 77.8999 65.6338 77.8333 64.3005 77.6999C64.9005 76.7666 65.5005 75.7999 66.1005 74.7999C66.8338 74.8666 67.5338 74.8999 68.2005 74.8999C75.4005 74.8999 80.6005 72.6999 82.5005 68.7999C84.3005 64.9999 83.0005 59.7999 78.8005 54.2999C74.4005 48.3999 67.4005 42.8999 59.0005 38.8999C50.9005 34.8999 42.4005 32.6999 35.2005 32.6999C28.1005 32.6999 22.9005 34.8999 21.0005 38.7999C18.7005 43.4999 21.3005 49.9999 27.1005 56.2999C26.7005 57.2999 26.3005 58.3333 25.9005 59.3999C18.5005 51.8999 15.3005 43.6999 18.3005 37.4999C20.8005 32.4999 26.8005 29.7999 35.2005 29.7999C42.9005 29.7999 51.8005 31.9999 60.3005 36.1999C69.1005 40.4999 76.5005 46.2999 81.2005 52.4999C86.1005 58.9999 87.5005 65.1999 85.1005 70.0999V70.0999Z" fill="white"/>
<path d="M67.5003 70.4999C54.6003 92.4999 39.1003 107.4 28.4003 107.4C26.8003 107.4 25.3003 107.033 23.9003 106.3C17.5003 102.9 16.2003 91.7999 19.4003 77.2999C20.3337 77.3665 21.3003 77.4332 22.3003 77.4999C19.1003 91.3999 20.4003 101.2 25.3003 103.8C26.2337 104.333 27.267 104.6 28.4003 104.6C37.4003 104.6 51.6003 90.9999 63.4003 71.7999C64.8003 71.3999 66.167 70.9665 67.5003 70.4999V70.4999Z" fill="white"/>
<path d="M81.8006 60.8999C82.1339 61.8999 82.4006 62.8666 82.6006 63.7999C75.0006 67.4999 65.9006 70.5999 56.1006 72.8999C55.4339 73.0332 54.7673 73.1666 54.1006 73.2999C52.2339 72.7666 50.4006 72.1332 48.6006 71.3999C50.8673 70.9999 53.1673 70.5332 55.5006 69.9999C65.2006 67.7999 74.3006 64.5999 81.8006 60.8999Z" fill="white"/>
<path d="M46.3002 34.9999C48.1669 35.4665 50.0669 36.0332 52.0002 36.6999C50.6669 36.9665 49.3335 37.2665 48.0002 37.5999C37.0002 40.1999 27.6002 43.5999 20.4002 47.3999C20.0669 46.3999 19.8335 45.3999 19.7002 44.3999C27.1002 40.6999 36.2002 37.3999 46.3002 34.9999V34.9999Z" fill="white"/>
<path d="M48.2003 74.4999C41.3003 75.6999 34.6003 76.2999 28.4003 76.2999C12.6003 76.2999 2.60034 72.3999 1.00034 65.5999C-0.49966 59.2999 5.80034 52.1999 16.9003 45.8999C17.1003 46.8999 17.367 47.8666 17.7003 48.7999C7.90034 54.3999 2.80034 60.4999 3.90034 64.8999C5.10034 70.0999 14.5003 73.2999 28.4003 73.2999C33.0003 73.2999 38.0003 72.9999 43.1003 72.2999C44.8337 73.0999 46.5337 73.8332 48.2003 74.4999V74.4999Z" fill="white"/>
<path d="M90.3002 59.4999C88.7669 60.4999 87.1002 61.4666 85.3002 62.3999C85.1002 61.3999 84.8002 60.4333 84.4002 59.4999C85.9335 58.6999 87.3669 57.8666 88.7002 56.9999C96.5002 51.8999 100.5 46.6999 99.6002 42.6999C98.4002 37.4999 89.0002 34.2999 75.0002 34.2999C69.6002 34.2999 63.6002 34.7999 57.5002 35.7999C55.7002 34.9999 53.9335 34.2999 52.2002 33.6999C60.2002 32.0999 68.0002 31.2999 75.0002 31.2999C90.9002 31.2999 100.9 35.1999 102.5 42.0999C103.7 47.3999 99.4002 53.5999 90.3002 59.4999Z" fill="white"/>
<path d="M59.3008 54.0999C59.3008 58.5999 55.6008 62.2999 51.0008 62.2999C46.5008 62.2999 42.8008 58.5999 42.8008 54.0999C42.8008 49.4999 46.5008 45.8999 51.0008 45.8999C55.6008 45.8999 59.3008 49.4999 59.3008 54.0999Z" fill="white"/>
<path d="M34.8008 39C36.1341 36.6666 37.5008 34.4 38.9008 32.2C39.9675 32.2666 41.0341 32.3999 42.1008 32.5999C40.9674 34.2666 39.9008 35.9999 38.9008 37.7999C37.5008 38.1333 36.1341 38.5333 34.8008 39V39Z" fill="white"/>
<path d="M40.7012 29.4C52.5012 11.7 65.7012 0.199951 75.0012 0.199951C76.6678 0.199951 78.1678 0.566618 79.5012 1.29995C86.4012 4.89995 87.4012 17.2 83.4012 33.2C82.4678 33.0666 81.5012 32.9666 80.5012 32.9C84.5012 17.5 83.3012 6.49995 78.2012 3.79995C77.2678 3.33328 76.2012 3.09995 75.0012 3.09995C67.0012 3.09995 54.8012 13.9 43.9012 29.9C42.8345 29.7 41.7678 29.5333 40.7012 29.4V29.4Z" fill="white"/>
<path d="M107.801 129.6V97.2L92.5006 116.4L77.1006 97.2V129.6H70.1006V84H74.2006L92.5006 107.1L110.801 84H114.901V129.6H107.801Z" fill="white"/>
<path d="M148.801 129.6V97.4L124.701 129.6H120.601V84H127.601V116.2L151.701 84H155.801V129.6H148.801Z" fill="white"/>
<path d="M258.201 129.6V97.4L234.101 129.6H230.001V84H237.001V116.2L261.101 84H265.201V129.6H258.201Z" fill="white"/>
<path d="M227.201 104.5C227.201 114.9 219.801 123.2 209.001 123.2C205.401 123.2 202.201 122 199.701 120.1V112.8C201.801 115.2 204.901 116.6 208.301 116.6C215.001 116.6 220.201 111.5 220.201 104.5C220.201 97.4 215.001 92.3 208.301 92.3C202.001 92.3 196.901 97 196.501 103.5V103.6V129.6H189.401V116.5C186.901 120.5 182.201 123.2 176.801 123.2C165.901 123.2 158.601 114.9 158.601 104.5C158.601 94 165.901 85.6 176.801 85.6C180.401 85.6 183.701 86.9 186.301 89V96.1C184.101 93.7 181.001 92.3 177.501 92.3C170.901 92.3 165.701 97.4 165.701 104.5C165.701 111.5 170.901 116.6 177.501 116.6C184.201 116.6 189.401 111.5 189.401 104.5V84H196.401V92.4C198.901 88.4 203.601 85.6 209.001 85.6C219.801 85.6 227.201 94 227.201 104.5V104.5Z" fill="white"/>
<path d="M202.3 68.9V60.8H194.1V68.9H190V49.1H194.1V57.1H202.3V49.1H206.5V68.9H202.3Z" fill="white"/>
<path d="M223.7 68.9V56.4L213.7 68.9H211.2V49.1H215.4V61.6L225.4 49.1H227.9V68.9H223.7Z" fill="white"/>
<path fill-rule="evenodd" clip-rule="evenodd" d="M243.9 68.9V64.1H241.6C239.5 64.1 239 64.6 237.4 66.9L236 68.9H231.3L233.1 66.3C234.5 64.3 235.4 63.3 236.3 62.8C233.4 61.7 231.7 59.5 231.7 56.5C231.7 52.4 235 49.1 240.9 49.1H248.1V68.9H243.9ZM240.5 52.7C237.7 52.7 235.6 54 235.6 56.5C235.6 59.2 237.7 60.4 240.5 60.4H243.9V52.7H240.5Z" fill="white"/>
<path d="M255 68.9L259.4 61.7L251.7 49.1H256.4L261.7 57.7L267 49.1H271.8L259.7 68.9H255Z" fill="white"/>
</svg>
