<svg id="Layer_1" data-name="Layer 1" xmlns="http://www.w3.org/2000/svg" viewBox="0 0 185.71 52.61"><path d="M60.87,4.32h.54V48.51h-.54ZM22.5,22.67a5.53,5.53,0,1,0,7.79-.38A5.55,5.55,0,0,0,22.5,22.67Zm-8.69,3.91s3.08-1.56,4.85-8.52S27.07,7.88,27.07,7.88s-14.23-14.12-25,8C2.07,15.91,10.85,17.63,13.81,26.58ZM32.57,14s7.57,2.45,14.23-4.58c0,0-11.13-15.22-31.69-7C15.11,2.43,26.07.28,32.57,14ZM33,37s-2.89-1.88-9.8.06-13-2.18-13-2.18S5.06,54.25,29.64,52.5C29.64,52.5,26.74,44,33,37ZM12.74,27S11.08,19.25,1.66,17c0,0-7.62,17.26,9.79,31C11.45,48,4.09,39.53,12.74,27ZM32.46,15.25s-.19,3.45,4.95,8.46S42,36.08,42,36.08s19.34-5.27,5.54-25.67C47.57,10.41,41.69,17.16,32.46,15.25ZM34,37.77s-5.9,5.34-3.14,14.62c0,0,18.75-2,21.9-23.95C52.72,28.44,49.11,39,34,37.77Zm39.47,5.35a2.22,2.22,0,0,1,.17.9A1.87,1.87,0,0,1,73,45.55a2.78,2.78,0,0,1-1.8.52h-1v2.37h-.83V42h1.89a3.73,3.73,0,0,1,1,.12,1.87,1.87,0,0,1,.75.36A1.62,1.62,0,0,1,73.43,43.12Zm-.71.92a1.14,1.14,0,0,0-.4-1,2,2,0,0,0-1.17-.29h-1V45.3h1A1.87,1.87,0,0,0,72.32,45,1.15,1.15,0,0,0,72.72,44ZM81,43.9a4.32,4.32,0,0,1,.19,1.33,4.17,4.17,0,0,1-.22,1.43,2.93,2.93,0,0,1-.6,1,2.54,2.54,0,0,1-.92.62,3.3,3.3,0,0,1-2.37,0,2.61,2.61,0,0,1-.92-.65,3.18,3.18,0,0,1-.58-1,4.55,4.55,0,0,1-.2-1.38,4.25,4.25,0,0,1,.21-1.38,3.1,3.1,0,0,1,.59-1,2.67,2.67,0,0,1,.91-.65,3,3,0,0,1,1.17-.23,3.08,3.08,0,0,1,1.26.24,2.6,2.6,0,0,1,.92.68A3.1,3.1,0,0,1,81,43.9Zm-.69,1.33a3.86,3.86,0,0,0-.14-1.14,2,2,0,0,0-.41-.79,1.53,1.53,0,0,0-.64-.45,2.35,2.35,0,0,0-.86-.15,2.09,2.09,0,0,0-.79.15,1.8,1.8,0,0,0-.63.47,2.2,2.2,0,0,0-.42.79,3.44,3.44,0,0,0-.16,1.12,3.73,3.73,0,0,0,.15,1.11,2.07,2.07,0,0,0,.43.79,1.63,1.63,0,0,0,.66.47,2.21,2.21,0,0,0,.87.16,1.75,1.75,0,0,0,1.43-.64A3,3,0,0,0,80.27,45.23Zm6-2.53a4.26,4.26,0,0,1,.61,0,4.71,4.71,0,0,1,.62.16l.15-.72a3.61,3.61,0,0,0-.57-.17,3.74,3.74,0,0,0-.9-.08,3.53,3.53,0,0,0-1.29.22,2.71,2.71,0,0,0-1,.65,3,3,0,0,0-.63,1.06,4.37,4.37,0,0,0-.22,1.45,3.77,3.77,0,0,0,.22,1.34,3,3,0,0,0,.63,1,2.79,2.79,0,0,0,1,.65,3.73,3.73,0,0,0,1.34.22,3.84,3.84,0,0,0,.78-.07,2.05,2.05,0,0,0,.62-.2l-.14-.73a2,2,0,0,1-.54.18,4.3,4.3,0,0,1-.61,0,3,3,0,0,1-1-.17,2.08,2.08,0,0,1-.76-.49,2.22,2.22,0,0,1-.48-.8A3.25,3.25,0,0,1,84,45.23a2.68,2.68,0,0,1,.6-1.89A2.27,2.27,0,0,1,86.31,42.7ZM92.52,42l2.41,6.42h-.87l-.61-1.72H90.71l-.63,1.72h-.83L91.7,42ZM93.18,46l-1.07-3h0L91,46Zm2.39-3.18h1.9v5.65h.82V42.79h1.9V42H95.57Zm11.62,1.11a4.64,4.64,0,0,1,.19,1.33,4.17,4.17,0,0,1-.22,1.43,3,3,0,0,1-.61,1,2.5,2.5,0,0,1-.91.62,3.2,3.2,0,0,1-1.17.21,3.06,3.06,0,0,1-1.2-.23,2.52,2.52,0,0,1-.92-.65,3,3,0,0,1-.58-1,4.75,4.75,0,0,1,0-2.76,2.94,2.94,0,0,1,.59-1,2.57,2.57,0,0,1,.91-.65,2.93,2.93,0,0,1,1.16-.23,3.16,3.16,0,0,1,1.27.24,2.56,2.56,0,0,1,.91.68A3,3,0,0,1,107.19,43.9Zm-.69,1.33a4.23,4.23,0,0,0-.14-1.14,2.19,2.19,0,0,0-.41-.79,1.56,1.56,0,0,0-.65-.45,2.31,2.31,0,0,0-.86-.15,2,2,0,0,0-.78.15,1.75,1.75,0,0,0-.64.47,2.56,2.56,0,0,0-.42.79,4.22,4.22,0,0,0,0,2.23,2.2,2.2,0,0,0,.42.79,1.74,1.74,0,0,0,.67.47,2.2,2.2,0,0,0,.86.16,1.73,1.73,0,0,0,1.43-.64A2.9,2.9,0,0,0,106.5,45.23ZM114.29,42l-1.69,5.52L110.86,42h-1l-.55,6.42h.83l.4-5,1.62,5H113l1.62-5,.4,5h.82L115.3,42ZM70.23,11.25h-.9V4.19H71.4a4.44,4.44,0,0,1,1.08.13,2.1,2.1,0,0,1,.82.4,1.77,1.77,0,0,1,.53.68,2.5,2.5,0,0,1,.18,1,2.06,2.06,0,0,1-.71,1.68,3.07,3.07,0,0,1-2,.58H70.23Zm0-3.45h1.09a2,2,0,0,0,1.28-.34,1.23,1.23,0,0,0,.44-1,1.21,1.21,0,0,0-.44-1A2.18,2.18,0,0,0,71.32,5H70.23Zm7.89,2a2.36,2.36,0,0,1-.38.61,1.27,1.27,0,0,1-.48.34l.49.64a2.13,2.13,0,0,0,.39-.25,2.82,2.82,0,0,0,.33-.36,4.38,4.38,0,0,0,.28-.42c.08-.14.14-.28.2-.41l2.3-5.72h-.91L78.66,8.62,76.58,4.19h-1l2.63,5.4Zm5.72.63A2.9,2.9,0,0,0,85,11.1a4.19,4.19,0,0,0,1.47.25,4.57,4.57,0,0,0,.86-.08,2.87,2.87,0,0,0,.68-.21l-.15-.81a2,2,0,0,1-.6.19,3.79,3.79,0,0,1-.67.06,3.06,3.06,0,0,1-1.12-.19,2.21,2.21,0,0,1-.83-.54,2.36,2.36,0,0,1-.53-.88,3.5,3.5,0,0,1-.19-1.17,3,3,0,0,1,.66-2.08,2.5,2.5,0,0,1,1.92-.7,5.31,5.31,0,0,1,.68,0,3.14,3.14,0,0,1,.67.17L88,4.37a3.72,3.72,0,0,0-.63-.19,4.36,4.36,0,0,0-1-.09,3.78,3.78,0,0,0-1.42.25,2.83,2.83,0,0,0-1.1.71,3.24,3.24,0,0,0-.69,1.17,4.83,4.83,0,0,0-.24,1.59,4.24,4.24,0,0,0,.24,1.47A3.16,3.16,0,0,0,83.84,10.39Zm6.86.86h-.91l2.69-7.06h.9L96,11.25h-.94L94.4,9.36h-3Zm1-2.71h2.43L92.93,5.22h0Zm7.23,2.71h.91V5h2.09V4.19H96.83V5h2.08Zm4.83-2a4.75,4.75,0,0,1-.22-1.51,4.8,4.8,0,0,1,.23-1.52,3.22,3.22,0,0,1,.65-1.13,2.64,2.64,0,0,1,1-.72,3.18,3.18,0,0,1,1.28-.26,3.35,3.35,0,0,1,1.39.27,2.78,2.78,0,0,1,1,.75,3.07,3.07,0,0,1,.62,1.14,4.62,4.62,0,0,1,.22,1.47,4.52,4.52,0,0,1-.25,1.58,3.21,3.21,0,0,1-.66,1.13,2.84,2.84,0,0,1-1,.69,3.51,3.51,0,0,1-1.28.23,3.45,3.45,0,0,1-1.32-.25,2.83,2.83,0,0,1-1-.72A3.3,3.3,0,0,1,103.74,9.23Zm.75-1.51a4.1,4.1,0,0,0,.16,1.22,2.41,2.41,0,0,0,.47.87,1.88,1.88,0,0,0,.73.52,2.63,2.63,0,0,0,1,.17,1.9,1.9,0,0,0,1.57-.7,3.24,3.24,0,0,0,.57-2.08,4.22,4.22,0,0,0-.16-1.25,2.24,2.24,0,0,0-.45-.87,1.8,1.8,0,0,0-.71-.5,2.5,2.5,0,0,0-.94-.16,2.2,2.2,0,0,0-.86.17,2.07,2.07,0,0,0-.7.51,2.56,2.56,0,0,0-.46.87A3.81,3.81,0,0,0,104.49,7.72Zm9-2,1.78,5.49h.94L118,5.74l.43,5.51h.91l-.61-7.06H117.6l-1.86,6.07-1.91-6.07h-1.1l-.61,7.06H113ZM70.23,21.1V15.41h-.9v7.06h1l3.43-5.69v5.69h.91V15.41h-1Zm12.66,1.37V15.41H82v3H78.41v-3h-.9v7.06h.9V19.22H82v3.25Zm4.34-6.17a3.78,3.78,0,0,1,1.23-.22v-.79h.9v.79a4.26,4.26,0,0,1,1.26.21,2.84,2.84,0,0,1,1,.54,2.52,2.52,0,0,1,.66.88,3.17,3.17,0,0,1,0,2.42,2.67,2.67,0,0,1-.67.88,2.84,2.84,0,0,1-1,.54,4.2,4.2,0,0,1-1.25.21v.81h-.9v-.81a4.14,4.14,0,0,1-1.25-.21,2.9,2.9,0,0,1-1-.53,2.52,2.52,0,0,1-.66-.88,3,3,0,0,1,0-2.4,2.71,2.71,0,0,1,.68-.89A3.13,3.13,0,0,1,87.23,16.3Zm2.13,4.63A2.53,2.53,0,0,0,91,20.4a1.88,1.88,0,0,0,.57-1.48A1.86,1.86,0,0,0,91,17.43a2.63,2.63,0,0,0-1.62-.53Zm-.9-4a2.53,2.53,0,0,0-1.61.55,1.82,1.82,0,0,0-.58,1.47,1.84,1.84,0,0,0,.59,1.46,2.45,2.45,0,0,0,1.6.55Zm8.47,3H95.84v2.6h-.91V15.41H97a4.44,4.44,0,0,1,1.08.13,2.1,2.1,0,0,1,.82.4,1.77,1.77,0,0,1,.53.68,2.5,2.5,0,0,1,.18,1,2.06,2.06,0,0,1-.71,1.68A3.07,3.07,0,0,1,96.93,19.87ZM95.84,19h1.09a2,2,0,0,0,1.28-.34,1.23,1.23,0,0,0,.44-1.05,1.21,1.21,0,0,0-.44-1.05,2.18,2.18,0,0,0-1.28-.32H95.84Zm4.84,3.45,2.69-7.06h.9l2.64,7.06H106l-.68-1.89h-3l-.69,1.89Zm1.89-2.71H105l-1.18-3.32h0Zm6.2-2.32a4.83,4.83,0,0,0-.24,1.59,4.28,4.28,0,0,0,.24,1.47,3.16,3.16,0,0,0,.69,1.11,2.9,2.9,0,0,0,1.11.71,4.19,4.19,0,0,0,1.47.25,4.57,4.57,0,0,0,.86-.08,2.47,2.47,0,0,0,.68-.22l-.15-.8a2,2,0,0,1-.6.19,3.79,3.79,0,0,1-.67.06,3.06,3.06,0,0,1-1.12-.19,2.21,2.21,0,0,1-.83-.54,2.36,2.36,0,0,1-.53-.88,3.26,3.26,0,0,1-.19-1.17,3,3,0,0,1,.66-2.08,2.5,2.5,0,0,1,1.92-.7,5.31,5.31,0,0,1,.68.05,3.14,3.14,0,0,1,.67.17l.17-.79a3.72,3.72,0,0,0-.63-.19,4.36,4.36,0,0,0-1-.09,4,4,0,0,0-1.42.24,3,3,0,0,0-1.1.72A3.24,3.24,0,0,0,108.77,17.44Zm6.64-1.18h2.08v6.21h.91V16.26h2.08v-.85h-5.07Zm11.69.36a2.5,2.5,0,0,1,.18,1,2,2,0,0,1-.71,1.68,3.07,3.07,0,0,1-2,.58h-1.08v2.6h-.91V15.41h2.08a4.44,4.44,0,0,1,1.08.13,2.17,2.17,0,0,1,.82.4A1.75,1.75,0,0,1,127.1,16.62Zm-.78,1a1.24,1.24,0,0,0-.44-1.05,2.19,2.19,0,0,0-1.29-.32h-1.08V19h1.08a2,2,0,0,0,1.29-.34A1.26,1.26,0,0,0,126.32,17.63Zm5.62,2.21-2.09-4.43h-1l2.63,5.4-.08.16a2.28,2.28,0,0,1-.37.61,1.35,1.35,0,0,1-.48.35l.48.64a1.4,1.4,0,0,0,.39-.26,2.26,2.26,0,0,0,.34-.35,3,3,0,0,0,.27-.42,3.07,3.07,0,0,0,.2-.41l2.31-5.72h-.92Zm8-.2a3.84,3.84,0,0,0-.51-.69.83.83,0,0,0-.51-.29l2.71-3.25h-1.16L138,18.62h-.59V15.41h-.91v7.06h.91V19.28h.66a1.25,1.25,0,0,1,.36,0,.8.8,0,0,1,.27.18,1.52,1.52,0,0,1,.27.35l.35.59.52.85c.21.33.46.72.77,1.17h1.15c-.46-.65-.82-1.2-1.1-1.67Zm3.15-3.38h2.09v6.21h.9V16.26h2.09v-.85h-5.08Zm9.83,3.58-2.08-4.43h-1l2.63,5.4-.07.16a2.06,2.06,0,0,1-.38.61,1.35,1.35,0,0,1-.48.35l.49.64a1.51,1.51,0,0,0,.38-.26,1.88,1.88,0,0,0,.34-.35,3,3,0,0,0,.27-.42,3.19,3.19,0,0,0,.21-.41l2.3-5.72h-.91ZM162,16.62a2.5,2.5,0,0,1,.18,1,2,2,0,0,1-.71,1.68,3.07,3.07,0,0,1-2,.58h-1.09v2.6h-.9V15.41h2.07a4.46,4.46,0,0,1,1.09.13,2.24,2.24,0,0,1,.82.4A1.75,1.75,0,0,1,162,16.62Zm-.78,1a1.24,1.24,0,0,0-.44-1.05,2.21,2.21,0,0,0-1.29-.32h-1.09V19h1.09a2.07,2.07,0,0,0,1.29-.34A1.26,1.26,0,0,0,161.19,17.63Zm7.75.77h-3.56v-3h-.91v7.06h.91V19.22h3.56v3.25h.91V15.41h-.91Zm7.94.82a2.43,2.43,0,0,1,.18,1,2.34,2.34,0,0,1-.21,1.05,2,2,0,0,1-.6.7,2.75,2.75,0,0,1-.92.39,5.14,5.14,0,0,1-1.15.12h-1.51V15.41h.91v2.66h.64a5.73,5.73,0,0,1,1.24.12,2.44,2.44,0,0,1,.88.37A1.58,1.58,0,0,1,176.88,19.22Zm-.78,1a1.09,1.09,0,0,0-.47-1,2.71,2.71,0,0,0-1.44-.3h-.61v2.7h.59a2.38,2.38,0,0,0,1.48-.36A1.27,1.27,0,0,0,176.1,20.21ZM178,22.47H179V15.41H178Zm7.67-6.21v-.85h-3.94v7.06h3.94v-.85h-3v-2.4h2.77V18.4h-2.77V16.26ZM73.83,27.84a2.5,2.5,0,0,1,.18,1,2.06,2.06,0,0,1-.71,1.68,3.07,3.07,0,0,1-2,.58H70.23v2.6h-.9V26.63H71.4a4.44,4.44,0,0,1,1.08.13,2.1,2.1,0,0,1,.82.4A1.77,1.77,0,0,1,73.83,27.84Zm-.79,1a1.21,1.21,0,0,0-.44-1.05,2.18,2.18,0,0,0-1.28-.32H70.23v2.76h1.09a2,2,0,0,0,1.28-.34A1.23,1.23,0,0,0,73,28.85Zm7.23-1.37v-.85H76.33v7.06h3.94v-.85h-3v-2.4H80v-.82H77.23V27.48Zm9.88-.85h-.91v6.21H87V26.63H86v6.21h-2.3V26.63h-.9v7.06h7.31Zm6.76.85v-.85H93v7.06h3.94v-.85h-3v-2.4h2.77v-.82H93.88V27.48Zm7,6.21h.91V26.63H104v3h-3.56v-3h-.91v7.06h.91V30.44H104Zm8.18,0H113V26.63h-1l-3.42,5.69V26.63h-.91v7.06h1L112.13,28Zm6.08-7.06h2v7.06h-.9V30.86h-.92a1.58,1.58,0,0,0-.47.06.73.73,0,0,0-.31.17,1.43,1.43,0,0,0-.25.33c-.07.14-.16.32-.25.53s-.2.46-.33.74-.28.62-.48,1h-1c.19-.37.36-.73.52-1.08s.3-.67.43-.95a5.9,5.9,0,0,1,.37-.72.93.93,0,0,1,.37-.39,2.15,2.15,0,0,1-.45-.2,1.75,1.75,0,0,1-.42-.36,1.61,1.61,0,0,1-.31-.53,2,2,0,0,1-.12-.72,2.46,2.46,0,0,1,.17-1,1.68,1.68,0,0,1,.51-.66,2.16,2.16,0,0,1,.81-.37A4.32,4.32,0,0,1,118.21,26.63Zm1.07.85H118a1.49,1.49,0,0,0-1,.32,1.18,1.18,0,0,0-.38,1,1.25,1.25,0,0,0,.12.56,1,1,0,0,0,.33.39,1.45,1.45,0,0,0,.52.23,2.71,2.71,0,0,0,.66.08h1Z" transform="translate(0 0)" style="fill:#fff"/></svg>