<svg width="181" height="36" viewBox="0 0 181 36" xmlns="http://www.w3.org/2000/svg">

<g fill="#fff">
  <path d="M0 27.8L9.36002 26.95C9.62285 27.8976 10.1882 28.7334 10.97 29.33C11.8036 29.8422 12.7729 30.0898 13.75 30.04C14.7916 30.1072 15.826 29.8257 16.69 29.24C16.938 29.0735 17.1415 28.8489 17.2827 28.5857C17.4239 28.3225 17.4985 28.0287 17.5 27.73C17.4954 27.3896 17.3905 27.0581 17.1984 26.7771C17.0063 26.496 16.7355 26.2779 16.42 26.15C15.1076 25.6683 13.746 25.333 12.36 25.15C10.0504 24.8067 7.77283 24.2749 5.55002 23.56C4.26233 23.062 3.14472 22.2047 2.33002 21.09C1.45696 19.9414 0.995565 18.5326 1.02002 17.09C0.991233 15.5692 1.48941 14.0853 2.43002 12.89C3.45655 11.6683 4.80378 10.7574 6.32001 10.26C8.47111 9.60995 10.7141 9.31607 12.96 9.39C15.1448 9.30418 17.3305 9.53318 19.45 10.07C20.7665 10.461 21.9656 11.1722 22.94 12.14C23.969 13.2373 24.762 14.534 25.27 15.95L16.27 16.89C16.1109 16.1786 15.7031 15.5474 15.12 15.11C14.336 14.5899 13.4105 14.3245 12.47 14.35C11.6588 14.2878 10.8491 14.4876 10.16 14.92C9.938 15.0776 9.75686 15.286 9.63162 15.5278C9.50639 15.7696 9.44068 16.0377 9.44 16.31C9.44 16.6039 9.5275 16.8911 9.69135 17.1351C9.85519 17.3791 10.088 17.5688 10.36 17.68C11.65 18.1367 12.9952 18.4192 14.36 18.52C16.7478 18.7067 19.101 19.2043 21.36 20C22.7639 20.5464 23.9795 21.4876 24.86 22.71C25.6581 23.8423 26.0845 25.1947 26.08 26.58C26.0631 28.0594 25.6148 29.5017 24.79 30.73C23.8118 32.1798 22.4172 33.299 20.79 33.94C18.3827 34.8282 15.8239 35.2326 13.26 35.13C8.78001 35.13 5.58001 34.5 3.67001 33.21C1.7777 31.9394 0.462612 29.974 0.0100098 27.74" />
  <path d="M31.57 32.1801C34.3149 34.2832 37.716 35.346 41.17 35.1801C45.5966 35.1801 49.0666 33.9667 51.58 31.54C52.8247 30.3404 53.8036 28.8927 54.453 27.2906C55.1025 25.6885 55.408 23.9678 55.35 22.2401C55.4479 19.1252 54.3778 16.0864 52.35 13.7201C49.83 10.8701 46.11 9.43005 41.19 9.43005C36.87 9.43005 33.45 10.6601 30.92 13.0901C29.6713 14.284 28.6877 15.7272 28.0331 17.3259C27.3784 18.9247 27.0673 20.6433 27.12 22.3701C27.0632 24.2376 27.4388 26.0929 28.2177 27.7912C28.9966 29.4895 30.1576 30.9847 31.61 32.1601L31.57 32.1801ZM37.92 17.4001C38.3297 16.8921 38.8496 16.484 39.4404 16.2068C40.0313 15.9296 40.6774 15.7905 41.33 15.8C41.9611 15.7953 42.5849 15.9352 43.1535 16.2091C43.7221 16.483 44.2203 16.8836 44.61 17.38C45.5984 18.7841 46.0685 20.4878 45.94 22.2C45.94 24.5067 45.5 26.1734 44.62 27.2C44.2119 27.6946 43.6994 28.0928 43.1194 28.3661C42.5394 28.6395 41.9062 28.7812 41.265 28.7812C40.6238 28.7812 39.9905 28.6395 39.4105 28.3661C38.8305 28.0928 38.3181 27.6946 37.91 27.2C36.9078 25.7606 36.4344 24.0188 36.57 22.2701C36.4392 20.5328 36.9164 18.8041 37.92 17.38" />
  <path d="M102.1 0.650024H92.65V34.62H102.1V0.650024Z" />
  <path d="M115.53 10.01H106.08V34.62H115.53V10.01Z" />
  <path d="M115.53 0.650024H106.08V7.11002H115.53V0.650024Z" />
  <path d="M119.13 10.0201H127.93V14.0201C129.006 12.5832 130.368 11.3847 131.93 10.5001C133.457 9.75624 135.142 9.39258 136.84 9.44011C137.968 9.3761 139.096 9.55151 140.151 9.95482C141.205 10.3581 142.163 10.9802 142.96 11.7801C144.433 13.3334 145.17 15.7301 145.17 18.9701V34.6201H135.67V21.0901C135.777 19.9312 135.476 18.7712 134.82 17.8101C134.514 17.4764 134.139 17.2139 133.721 17.0411C133.303 16.8683 132.852 16.7894 132.4 16.8101C131.868 16.7976 131.34 16.9084 130.858 17.134C130.375 17.3595 129.952 17.6936 129.62 18.1101C128.91 18.9801 128.56 20.5301 128.56 22.7701V34.5901H119.1L119.13 10.0201Z" />
  <path d="M175.74 23.6401C175.85 20.9078 175.305 18.1889 174.15 15.7101C173.114 13.7195 171.491 12.096 169.5 11.0601C166.89 9.87071 164.035 9.31885 161.17 9.45011C156.837 9.45011 153.44 10.6435 150.98 13.0301C149.747 14.2451 148.781 15.7045 148.146 17.3148C147.511 18.9251 147.219 20.6504 147.29 22.3801C147.229 24.8563 147.866 27.2997 149.13 29.4301C150.212 31.3117 151.821 32.8346 153.76 33.8101C156.18 34.8426 158.801 35.3176 161.43 35.2001C165.17 35.2001 168.05 34.6601 170.05 33.5901C172.228 32.3362 174.006 30.4918 175.18 28.2701L165.91 27.4301C165.469 28.0414 164.92 28.5667 164.29 28.9801C163.492 29.4349 162.589 29.6728 161.67 29.6701C161 29.6896 160.334 29.5566 159.722 29.2812C159.111 29.0057 158.57 28.5951 158.14 28.0801C157.41 27.1022 156.989 25.9288 156.93 24.7101H175.74V23.6401ZM156.95 20.2201C157.005 19.0288 157.382 17.8745 158.04 16.8801C158.42 16.3742 158.902 15.9536 159.455 15.6454C160.008 15.3372 160.619 15.1483 161.25 15.0908C161.88 15.0334 162.515 15.1086 163.115 15.3117C163.714 15.5148 164.264 15.8413 164.73 16.2701C165.65 17.3836 166.164 18.7762 166.19 20.2201H156.95Z" />
  <path d="M43.34 3.95998C51.8485 4.73543 60.2614 6.33629 68.46 8.73998C76.83 11 90.15 10.02 90.15 10.02V16.95C81.3687 17.8047 72.506 16.7821 64.15 13.95C47.3 7.81997 39.68 6.56997 30.66 5.94997C18.45 5.07997 3.90002 6.94997 3.90002 6.94997L3.75 5.71999C3.75 5.71999 24.82 1.98997 43.3 3.97997" />
  <path d="M55 12.22V16.85H58.56V34.52H68.01V16.85H69.33C67.4049 16.416 65.5081 15.865 63.65 15.2C60.46 14.04 57.65 13.06 55 12.2V12.22ZM67.33 -0.019971C65.7254 -0.0945543 64.1217 0.146698 62.61 0.690051C61.6307 1.08514 60.7672 1.72152 60.1 2.54003C59.6142 3.2273 59.2739 4.00657 59.1 4.83004C61.83 5.43004 64.75 6.17005 68.39 7.16005C68.5105 6.8667 68.699 6.60619 68.94 6.40004C69.4958 6.07467 70.1381 5.92803 70.78 5.98003C71.6988 6.00072 72.6148 6.09099 73.52 6.25005L74.59 0.560046C72.1925 0.234573 69.7788 0.0409311 67.36 -0.019971" />
  <path d="M84.95 8.71008V0.570068L75.49 5.4101V8.4101C78.6357 8.68049 81.7932 8.78728 84.95 8.73007V8.71008ZM89.78 27.8801C88.8405 28.2192 87.8571 28.4213 86.86 28.4801C86.5449 28.5092 86.2279 28.4509 85.9439 28.3115C85.6598 28.1721 85.4197 27.9571 85.25 27.6901C84.9943 27.0283 84.8917 26.3172 84.95 25.6101V18.6101C81.7868 18.6332 78.6258 18.436 75.49 18.0201V25.5201C75.3778 27.5526 75.6492 29.588 76.29 31.5201C76.7712 32.6919 77.6442 33.6603 78.76 34.2601C80.3911 34.9657 82.1664 35.2742 83.94 35.1601C86.1373 35.1368 88.326 34.882 90.47 34.4001L89.78 27.8801Z" />
  <path d="M176.21 5.52003H176.67C177.35 5.52003 177.41 5.17003 177.41 4.99003C177.41 4.53003 176.77 4.54002 176.67 4.54002H176.21V5.52003ZM177.04 3.73002C178.04 3.73002 178.5 4.24004 178.5 4.90004C178.503 5.13973 178.42 5.37256 178.266 5.5561C178.112 5.73965 177.897 5.8617 177.66 5.90004C177.761 5.94175 177.853 6.00296 177.93 6.08018C178.007 6.1574 178.068 6.24909 178.11 6.35002L178.81 8.03004H177.67L177.11 6.65004C177.06 6.54518 176.98 6.45723 176.881 6.39686C176.781 6.3365 176.666 6.30633 176.55 6.31004H176.22V8.03004H175.16V3.71003L177.04 3.73002ZM176.76 9.14003C177.406 9.13805 178.038 8.9446 178.574 8.58409C179.11 8.22358 179.528 7.71217 179.774 7.11448C180.02 6.5168 180.083 5.85962 179.956 5.22596C179.829 4.59231 179.516 4.01059 179.059 3.55427C178.601 3.09795 178.018 2.78752 177.384 2.66215C176.75 2.53679 176.093 2.60214 175.496 2.84993C174.899 3.09772 174.389 3.51683 174.03 4.05436C173.672 4.59189 173.48 5.22372 173.48 5.87004C173.483 6.73821 173.829 7.56992 174.444 8.18287C175.059 8.79583 175.892 9.14003 176.76 9.14003ZM176.76 1.63002C177.598 1.63199 178.417 1.88237 179.113 2.34947C179.809 2.81657 180.351 3.47944 180.67 4.25438C180.99 5.02931 181.072 5.8815 180.907 6.70332C180.743 7.52514 180.338 8.27971 179.745 8.87169C179.151 9.46366 178.396 9.86649 177.574 10.0293C176.751 10.1921 175.899 10.1075 175.125 9.78633C174.351 9.46512 173.689 8.92167 173.224 8.22462C172.758 7.52758 172.51 6.7082 172.51 5.87004C172.51 5.31239 172.62 4.7602 172.834 4.24513C173.047 3.73006 173.361 3.26221 173.755 2.86836C174.15 2.47451 174.619 2.16239 175.134 1.9499C175.65 1.73741 176.202 1.6287 176.76 1.63002" />

</g>
</svg>