<?xml version="1.0" encoding="UTF-8"?>
<!DOCTYPE svg PUBLIC "-//W3C//DTD SVG 1.1//EN" "http://www.w3.org/Graphics/SVG/1.1/DTD/svg11.dtd">
<!-- Creator: CorelDRAW X6 -->
<svg xmlns="http://www.w3.org/2000/svg" xml:space="preserve" width="9.95833in" height="" version="1.1" style="shape-rendering:geometricPrecision; text-rendering:geometricPrecision; image-rendering:optimizeQuality; fill-rule:evenodd; clip-rule:evenodd"
viewBox="0 0 9958 3833"
 xmlns:xlink="http://www.w3.org/1999/xlink">
 <defs>
  <style type="text/css">
   <![CDATA[
    .fil2 {fill:#5F605F;fill-rule:nonzero}
    .fil0 {fill:#A7333E;fill-rule:nonzero}
    .fil1 {fill:#B4B4B3;fill-rule:nonzero}
   ]]>
  </style>
 </defs>
 <g id="Layer_x0020_1">
  <metadata id="CorelCorpID_0Corel-Layer"/>
  <path class="fil0" d="M0 1530l517 -47c21,61 51,105 89,131 38,26 90,39 154,39 70,0 124,-15 162,-45 30,-22 45,-50 45,-83 0,-38 -20,-67 -59,-87 -28,-15 -103,-33 -224,-54 -181,-32 -306,-61 -377,-88 -70,-27 -129,-72 -178,-136 -48,-64 -72,-137 -72,-219 0,-90 26,-167 78,-232 52,-65 124,-113 215,-145 91,-32 213,-48 367,-48 162,0 282,12 359,37 77,25 142,63 193,115 52,52 94,122 129,210l-497 52c-13,-44 -34,-77 -63,-98 -41,-28 -90,-42 -147,-42 -58,0 -101,11 -127,31 -27,21 -40,47 -40,76 0,33 17,59 51,76 34,17 108,33 222,46 173,20 302,47 386,82 84,35 149,85 194,150 45,65 67,136 67,214 0,79 -24,155 -71,229 -47,74 -122,133 -224,177 -102,44 -241,66 -416,66 -248,0 -424,-35 -530,-106 -105,-71 -173,-172 -203,-302l0 0z"/>
  <path class="fil0" d="M2094 957c50,-59 113,-89 189,-89 72,0 132,29 181,87 49,58 73,147 73,266 0,128 -24,221 -73,279 -48,58 -110,87 -185,87 -75,0 -136,-29 -186,-88 -49,-59 -74,-149 -74,-272 0,-121 25,-211 74,-270l0 0zm-348 815c135,111 312,166 530,166 245,0 437,-67 575,-200 139,-134 208,-305 208,-515 0,-186 -56,-343 -168,-470 -139,-158 -345,-237 -617,-237 -238,0 -427,67 -567,202 -140,135 -210,306 -210,513 0,223 83,403 248,541z"/>
  <path class="fil0" d="M3761 547l248 0 0 383 -248 0 0 977 -522 0 0 -977 -197 0 0 -383 197 0 0 -61c0,-55 6,-116 18,-183 12,-66 34,-121 67,-163 33,-42 79,-76 139,-102 58,-26 143,-39 255,-39l11 0c91,0 223,11 394,32l-59 314c-63,-10 -113,-15 -151,-15 -47,0 -81,8 -102,24 -21,16 -35,41 -44,75 -4,19 -6,58 -6,119l0 0z"/>
  <path class="fil0" d="M4697 930l0 483c0,58 5,96 16,115 17,29 47,44 89,44 38,0 92,-11 161,-33l38 358c-129,28 -249,42 -361,42 -130,0 -225,-17 -287,-50 -61,-33 -107,-84 -136,-152 -29,-68 -44,-177 -44,-329l0 -478 -191 0 0 -383 191 0 0 -250 522 -268 0 900z"/>
  <polygon class="fil1" points="5120,30 5642,30 5642,1908 5120,1908 "/>
  <polygon class="fil1" points="5862,1908 6384,1908 6384,547 5862,547 "/>
  <polygon class="fil1" points="5862,30 5862,387 6384,387 6384,30 5862,30 "/>
  <path class="fil1" d="M6583 547l487 0 0 222c72,-91 146,-155 220,-194 74,-39 165,-58 271,-58 144,0 257,43 338,129 81,86 122,218 122,398l0 865 -522 0 0 -748c0,-85 -16,-146 -47,-181 -32,-35 -76,-53 -133,-53 -63,0 -114,24 -154,72 -39,48 -59,134 -59,257l0 654 -523 0 0 -1360z"/>
  <path class="fil1" d="M8674 1111c8,-82 28,-143 60,-185 49,-66 115,-100 198,-100 71,0 129,22 173,66 44,44 71,117 81,219l-511 0 0 0zm1038 189c0,-180 -29,-326 -88,-438 -59,-112 -144,-198 -257,-257 -113,-59 -266,-89 -460,-89 -239,0 -427,66 -563,197 -136,132 -204,304 -204,516 0,149 34,280 101,390 68,111 153,191 256,242 103,51 244,76 424,76 207,0 365,-30 476,-89 111,-59 205,-157 283,-294l-512 -47c-32,41 -62,70 -90,86 -46,26 -94,38 -144,38 -80,0 -145,-29 -195,-88 -35,-41 -58,-103 -67,-186l1040 0 0 -59z"/>
  <path class="fil1" d="M2395 213c595,64 833,115 1388,264 463,125 1199,71 1199,71 0,0 0,237 0,383 -288,40 -914,26 -1434,-164 -931,-339 -1353,-408 -1851,-444 -675,-48 -1479,54 -1479,54l-8 -68c0,0 1164,-206 2185,-96l0 0z"/>
  <path class="fil1" d="M9732 68c124,0 225,96 233,217l0 34c-9,121 -110,217 -233,217 -129,0 -234,-105 -234,-234 0,-129 105,-234 234,-234l0 0zm0 414c99,0 180,-81 180,-180 0,-99 -81,-180 -180,-180 -99,0 -180,81 -180,180 0,99 81,180 180,180zm16 -298c53,0 80,28 80,65 0,33 -24,51 -46,55l0 1c14,4 23,21 25,25l39 93 -63 0 -31 -76c-1,-3 -9,-19 -31,-19l-18 0 0 95 -58 0 0 -238 104 0 0 0zm-46 99l26 0c37,0 41,-19 41,-29 0,-26 -35,-25 -41,-25l-26 0 0 54z"/>   
 </g>
</svg>
