<svg width="120" height="120" viewBox="0 0 120 120" fill="none" xmlns="http://www.w3.org/2000/svg">
<g clip-path="url(#clip0_63_14)">
<path fill-rule="evenodd" clip-rule="evenodd" d="M67.3937 48.314C67.3937 52.6222 63.969 56.0687 59.5811 56.0687C55.7283 55.961 51.7685 52.8376 51.7685 48.2063C51.8755 43.8982 55.3002 40.4517 59.6881 40.4517C64.076 40.4517 67.3937 44.0059 67.3937 48.314ZM90.4037 79.1175H85.4808V77.6092C85.4808 68.5623 85.4808 59.5152 85.4808 50.3604C85.4808 48.2063 84.517 47.237 82.3772 47.237C78.4172 47.237 74.3502 47.237 70.3903 47.237C70.0692 47.237 69.8553 47.237 69.5342 47.3447V49.2834H71.9957C72.1027 55.3147 65.6814 61.5616 59.26 60.7C59.6881 60.2691 60.0091 59.8383 60.4373 59.4075C59.9022 58.9767 59.4741 58.5459 59.046 58.0073C57.7617 59.2998 56.6915 60.5923 55.5143 61.777C56.7985 63.0694 57.8688 64.2541 59.046 65.4389C59.4741 65.008 60.0091 64.685 60.4373 64.2542C60.0091 63.8233 59.5811 63.2848 59.153 62.7463C63.1128 62.7463 66.5375 61.5616 69.4271 59.0844C72.3168 56.4995 73.815 53.1607 74.2432 49.2834C76.919 49.2834 79.594 49.2834 82.1625 49.2834C83.554 49.2834 83.6614 49.3911 83.6614 50.8989C83.6614 59.946 83.6614 68.9931 83.6614 78.1477V79.2247H82.2698C78.0959 79.2247 73.9221 79.2247 69.7482 79.2247C68.571 79.2247 67.6078 79.44 66.8586 80.3017C66.3235 80.8402 65.6813 81.0562 64.9322 80.9482C61.5075 80.9482 58.0828 80.9482 54.658 80.9482C54.0159 80.9482 53.2668 80.625 52.8387 80.3017C51.9825 79.548 51.0193 79.2247 49.8421 79.2247C45.6682 79.3327 41.4943 79.2247 37.3205 79.2247H35.9292V78.0405C35.9292 75.3472 35.9292 72.5473 35.9292 69.8548C35.9292 63.5002 35.9292 57.2534 35.9292 50.8989C35.9292 49.6065 36.1432 49.3911 37.4275 49.3911C40.7452 49.3911 43.9558 49.3911 47.2736 49.3911C48.1297 49.3911 48.8789 49.2834 49.8421 49.2834C49.8421 48.6371 49.9491 48.0986 49.9491 47.4524H47.5946C47.5946 41.0979 54.337 35.1743 60.4373 36.1436C60.0091 36.5744 59.6881 37.0052 59.367 37.3283C59.7952 37.8668 60.2232 38.2976 60.5443 38.7284C61.8285 37.436 63.0058 36.1436 64.1831 35.0666C63.0058 33.8818 61.8285 32.5894 60.5443 31.4046C60.1162 31.7277 59.6881 32.1585 59.26 32.4816C59.6881 33.0202 60.1162 33.3433 60.5443 33.8818C56.5845 33.8818 53.1598 35.0666 50.3772 37.6514C47.4876 40.2363 45.9893 43.5751 45.5612 47.4524C42.6716 47.4524 39.889 47.4524 37.1064 47.4524C35.2871 47.4524 34.2168 48.5294 34.2168 50.2527C34.2168 58.4382 34.3239 66.7313 34.3239 74.9168C34.3239 76.317 34.3239 77.7172 34.3239 79.3327H28.8657C28.8657 80.5177 28.8657 81.4867 28.8657 82.5637C28.8657 85.4715 30.15 86.7645 32.9326 86.7645C50.5912 86.7645 68.3569 86.7645 86.0159 86.7645C86.4437 86.7645 86.765 86.7645 87.1928 86.7645C88.7983 86.6565 90.1891 85.5795 90.2964 84.0712C90.5103 82.2405 90.4037 80.733 90.4037 79.1175ZM59.6881 43.5751C57.1196 43.5751 55.0862 45.6215 55.0862 48.2063C55.0862 50.7912 57.1196 52.8376 59.6881 52.8376C62.2567 52.8376 64.2901 50.7912 64.2901 48.2063C64.2901 45.6215 62.1496 43.5751 59.6881 43.5751ZM59.6881 49.068C59.26 49.068 58.832 48.7448 58.832 48.2063C58.832 47.7755 59.153 47.3447 59.6881 47.3447C60.1162 47.3447 60.5443 47.6678 60.5443 48.2063C60.4373 48.6371 60.1162 49.068 59.6881 49.068ZM42.2435 74.486H39.0329V76.425H42.2435V74.486ZM48.0227 73.3012H44.812V76.5322H48.0227V73.3012ZM53.8019 71.3626H50.5912V76.5322H53.8019V71.3626ZM59.5811 69.7471H56.3705V76.5322H59.5811V69.7471ZM65.3603 67.1621H62.1496V76.425H65.3603V67.1621ZM71.1395 62.9617H67.8218V76.425H71.1395V62.9617ZM76.919 59.1921H73.708V76.425H76.919V59.1921ZM59.4741 54.1301C63.541 53.8069 65.6814 51.2221 65.3603 47.4524C65.0392 44.4368 62.1496 42.175 58.939 42.3904C55.8353 42.7135 53.4809 45.6215 53.8019 48.8526C54.0159 51.7606 56.9055 54.3454 59.4741 54.1301Z" fill="#ECECE7"/>
<path d="M64.0756 119.829C31.3269 122.306 2.64487 97.5345 0.183368 64.4697C-2.38517 31.5125 22.337 2.64791 55.0857 0.170723C87.8348 -2.30646 116.624 22.4653 119.085 55.5303C121.547 88.4873 96.9317 117.352 64.0756 119.829ZM55.1928 1.57087C23.1932 3.94034 -0.886852 32.1586 1.46764 64.362C3.92914 96.5655 31.969 120.906 63.9686 118.43C95.9679 115.952 120.048 87.7335 117.694 55.5303C115.232 23.3269 87.1923 -0.906315 55.1928 1.57087Z" fill="#ECECE7"/>
<path d="M10.9928 82.671C10.7787 82.3477 10.4576 81.8092 10.1366 81.0555C9.81551 80.301 9.70848 79.6552 9.92254 79.1167C10.0296 78.6855 10.4576 78.255 10.9928 78.0397C11.5279 77.8245 12.063 77.8245 12.4911 78.0397C13.0261 78.255 13.5613 78.9015 13.7754 79.6552C13.8824 79.8705 13.8824 79.9785 13.8824 80.0857L15.9158 79.224L16.4509 80.517L10.9928 82.671ZM13.0261 80.409C13.0261 80.301 12.9192 80.1937 12.9192 79.9785C12.5981 79.332 12.17 79.0087 11.5279 79.224C10.9928 79.44 10.8857 79.8705 11.0998 80.517C11.2068 80.7322 11.3138 80.9475 11.3138 81.0555L13.0261 80.409ZM9.92254 69.6387C11.8489 69.2079 13.2402 70.0695 13.6683 71.7928C14.0964 73.516 13.0261 74.9161 11.3138 75.2392C9.60145 75.6697 7.99613 74.8084 7.56808 73.0852C7.24698 71.362 8.31722 70.0695 9.92254 69.6387ZM10.9928 73.9469C12.17 73.6237 12.8122 72.9775 12.5981 72.0082C12.384 71.1465 11.4208 70.8234 10.2436 71.0388C9.1734 71.2542 8.42425 72.0082 8.63824 72.9775C8.8523 73.8391 9.92254 74.1623 10.9928 73.9469ZM6.28378 63.6073L7.354 63.4996L7.56808 65.7614L12.384 65.3306L12.4911 66.7307L6.49782 67.2692L6.28378 63.6073ZM6.28378 60.6993C6.17676 60.2685 6.17676 59.73 6.17676 58.8683C6.17676 58.0067 6.3908 57.4682 6.71187 57.0373C7.03293 56.7142 7.56808 56.3911 8.10316 56.3911C8.63824 56.3911 9.1734 56.6065 9.49442 57.0373C9.92254 57.4682 10.1366 58.2221 10.0296 58.976C10.0296 59.1914 10.0296 59.2991 10.0296 59.4068L12.17 59.5145V60.9147L6.28378 60.6993ZM9.06636 59.5145C9.06636 59.4068 9.06636 59.2991 9.06636 59.0837C9.06636 58.3298 8.74527 57.899 8.10316 57.899C7.56808 57.899 7.24698 58.2221 7.13996 58.976C7.13996 59.2991 7.13996 59.4068 7.13996 59.5145H9.06636ZM11.2068 53.2678L12.7051 53.914L12.4911 55.3141L6.92592 52.5138L7.24698 50.7906L13.4543 49.9289L13.2402 51.3291L11.6349 51.5445L11.2068 53.2678ZM10.4576 51.5445L9.1734 51.6522C8.8523 51.6522 8.31722 51.7599 7.99613 51.7599C8.31722 51.8676 8.74527 52.083 9.06636 52.1907L10.2436 52.7293L10.4576 51.5445ZM13.3472 42.1743C12.7051 41.9589 11.8489 41.7435 10.9928 41.4204C11.6349 41.8512 12.384 42.3897 12.9192 42.8205L14.8455 44.3284L14.5245 45.2977L12.17 45.19C11.4208 45.19 10.5647 45.0823 9.81551 44.9746C10.5647 45.2977 11.4208 45.6208 12.17 45.9439L14.3104 46.8055L13.8824 47.9902L8.31722 45.6208L8.95933 43.8976L10.9928 44.0053C11.7419 44.0053 12.4911 44.113 13.1332 44.2207C12.4911 43.7899 11.8489 43.3591 11.3138 42.9282L9.60145 41.6358L10.1366 39.9125L15.9158 41.6358L15.4877 42.9282L13.3472 42.1743ZM17.5211 33.8811C16.879 33.558 16.1298 33.1272 15.3807 32.6964C15.9158 33.2349 16.5579 33.8811 17.093 34.4197L18.8054 36.2506L18.1633 37.2199L15.8087 36.5737C15.0596 36.3583 14.3104 36.1429 13.5613 35.8198C14.2034 36.2506 15.0596 36.7892 15.7017 37.1123L17.6281 38.2969L16.986 39.374L11.956 36.0352L12.8122 34.4197L14.8455 34.9582C15.4877 35.1736 16.2368 35.389 16.986 35.6044C16.4509 35.0659 15.9158 34.5274 15.3807 33.9888L13.9893 32.481L14.8455 30.9731L20.1966 33.6657L19.5545 34.8505L17.5211 33.8811ZM17.8422 26.9881L19.6615 28.496L21.0529 26.7727L19.2335 25.2649L20.0897 24.1878L24.6916 28.0652L23.8354 29.1422L21.909 27.5267L20.5177 29.2499L22.4441 30.8654L21.588 31.9425L16.986 28.0652L17.8422 26.9881ZM23.6214 20.7413L25.0127 22.3568C25.1197 22.2491 25.3337 22.0337 25.4408 21.926C26.404 21.0644 27.6882 20.849 28.5444 21.926C28.8655 22.3568 29.0795 22.7877 28.9725 23.2185C28.8655 24.0801 28.2234 24.8341 27.5812 25.3726C27.0461 25.8034 26.725 26.1265 26.404 26.2342L22.5512 21.7106L23.6214 20.7413ZM26.832 24.5109C26.9391 24.4032 27.0461 24.4032 27.2602 24.1878C27.6882 23.757 27.9023 23.1108 27.4741 22.68C27.0461 22.1414 26.404 22.3568 25.9759 22.68C25.8688 22.7877 25.7618 22.8954 25.6548 23.0031L26.832 24.5109ZM27.3672 17.5102L31.2199 22.1414L30.1497 23.0031L26.297 18.3719L27.3672 17.5102ZM35.1798 16.5409L33.2534 17.7256L34.0025 18.9104L36.143 17.6179L36.6781 18.5873L33.3604 20.6336L30.2567 15.4639L33.4674 13.5252L34.0025 14.4945L32.0761 15.6793L32.7183 16.7563L34.6446 15.5716L35.1798 16.5409ZM39.7817 10.5095C40.1028 10.2941 40.6379 10.0787 41.4941 9.75555C42.2432 9.43245 42.8853 9.43245 43.4205 9.54015C43.8486 9.64785 44.2767 10.0787 44.4907 10.6172C44.7047 11.1557 44.7047 11.6942 44.4907 12.125C44.1696 12.6635 43.6345 13.0944 42.8853 13.4175C42.6714 13.5252 42.5643 13.5252 42.4573 13.5252L43.2064 15.5716L41.8151 16.1101L39.7817 10.5095ZM42.0292 12.6635C42.1362 12.6635 42.2432 12.6635 42.4573 12.5558C43.0994 12.3404 43.4205 11.8019 43.2064 11.2634C42.9924 10.7249 42.5643 10.5095 41.9221 10.8326C41.7082 10.9403 41.4941 11.048 41.3871 11.048L42.0292 12.6635ZM51.019 10.8326L48.8786 11.2634L49.1997 12.6635L51.6612 12.125L51.8752 13.2021L48.1294 14.0637L46.8452 8.13998L50.484 7.38609L50.698 8.46315L48.4505 9.00165L48.6646 10.1864L50.805 9.75555L51.019 10.8326ZM55.0859 6.84756L55.3 11.8019L56.7983 11.6942L56.5842 6.73986L57.8685 6.63216L58.0825 11.5865L59.5809 11.4788L59.3668 6.52446L60.6511 6.41675L60.9721 12.4481L54.0157 12.8789L53.6946 6.84756H55.0859ZM67.2864 10.6172L65.146 10.4018L64.932 11.8019L67.3935 12.125L67.2864 13.2021L63.4336 12.7712L64.1828 6.73986L67.8216 7.17068L67.7145 8.24768L65.36 8.03228L65.253 9.32475L67.3935 9.54015L67.2864 10.6172ZM72.4235 8.13998L71.7813 10.4018L73.9218 10.9403L74.564 8.67855L75.8482 9.00165L74.3499 14.8176L73.0657 14.4945L73.7078 12.0173L71.5673 11.4788L70.9252 13.956L69.5339 13.6329L71.0322 7.81688L72.4235 8.13998ZM80.3434 10.7249L79.5943 12.3404C79.1657 13.2021 78.8445 14.0637 78.4167 14.8176C78.9518 14.2791 79.7009 13.7406 80.2361 13.3098L82.3767 11.6942L83.6609 12.2327L81.3064 17.7256L80.1287 17.1871L80.8785 15.5716C81.3064 14.7099 81.6276 13.956 81.9481 13.3098C81.4137 13.8483 80.7712 14.3868 80.1287 14.8176L78.0954 16.3255L76.7046 15.6793L79.1657 10.1864L80.3434 10.7249ZM83.1257 18.695C83.3397 18.5873 83.5536 18.4796 83.7675 18.2642C84.3026 17.8334 84.8378 17.2948 85.4803 17.1871C85.6942 17.1871 85.9081 17.1871 86.0154 17.1871C85.4803 16.7563 85.2664 16.0024 85.6942 15.2484C86.0154 14.8176 86.4433 14.4945 86.8718 14.4945C87.4062 14.4945 88.1561 14.7099 88.7978 15.1407C89.333 15.4639 89.8681 15.8947 90.1894 16.2178L86.9784 21.2798L85.8015 20.5259L87.0857 18.4796L86.7645 18.2642C86.5506 18.1565 86.3367 18.0488 86.122 18.1565C85.5869 18.2642 85.0525 18.8027 84.6239 19.1258C84.5173 19.2335 84.41 19.3412 84.1961 19.4489L83.1257 18.695ZM88.5839 16.3255C88.4766 16.2178 88.37 16.1101 88.1561 16.0024C87.6209 15.6793 87.0857 15.6793 86.7645 16.1101C86.4433 16.5409 86.7645 17.0794 87.2997 17.4025C87.4062 17.5102 87.6209 17.6179 87.7275 17.6179L88.5839 16.3255ZM99.1789 23.9724L95.7541 27.5267L96.1826 27.9575L94.3633 29.6807L93.5069 29.0345L94.5772 27.8498L92.1153 25.3726L90.9384 26.4496L90.1894 25.6957L91.9014 23.8647L92.33 24.1878C92.7578 24.0801 93.293 23.8647 93.7208 23.6493C94.2559 23.3262 94.7911 22.8954 95.3262 22.3568L96.5031 21.1721L99.1789 23.9724ZM95.9687 23.4339C95.4336 23.9724 94.8984 24.2955 94.3633 24.6186C94.042 24.8341 93.6142 24.9418 93.3995 25.0495L94.7911 26.4496L97.4669 23.757L96.5031 22.7877L95.9687 23.4339ZM104.423 30.5423L99.5002 34.0966L98.7511 33.0195L102.711 30.1115L101.855 29.0345L100.677 29.8961C99.3928 30.7577 98.3225 31.4039 97.3595 30.9731C97.0383 30.8654 96.7178 30.5423 96.3966 30.2192L97.1456 29.4653C97.3595 29.6807 97.5735 29.7884 97.7881 29.7884C98.3225 29.8961 98.965 29.4653 99.7141 28.9268L101.855 27.419L104.423 30.5423ZM100.677 35.9275C100.892 35.9275 101.106 35.9275 101.427 35.9275C102.176 35.8198 102.818 35.6044 103.46 35.8198C103.674 35.9275 103.781 36.0352 103.995 36.1429C103.781 35.4967 103.888 34.7428 104.744 34.312C105.28 34.0966 105.707 34.0966 106.135 34.312C106.67 34.5274 107.099 35.1736 107.419 35.8198C107.741 36.3583 107.955 37.0045 108.062 37.4354L102.818 40.2356L102.176 39.0509L104.316 37.9739L104.209 37.6508C104.102 37.4354 103.888 37.2199 103.674 37.2199C103.139 37.0045 102.39 37.2199 101.961 37.3277C101.747 37.3277 101.641 37.4354 101.427 37.3277L100.677 35.9275ZM106.564 36.5737C106.564 36.466 106.456 36.2506 106.35 36.0352C106.029 35.4967 105.6 35.1736 105.066 35.4967C104.53 35.7121 104.53 36.3583 104.851 36.8969C104.958 37.0046 105.066 37.2199 105.066 37.3277L106.564 36.5737ZM111.808 47.7748L110.738 48.098L109.989 45.5131L109.025 45.8363C109.132 46.0517 109.239 46.2671 109.239 46.4824C109.453 47.021 109.453 47.7748 109.239 48.2057C109.025 48.7442 108.704 49.0673 108.062 49.2827C107.527 49.3904 106.992 49.3904 106.564 49.0673C105.921 48.6365 105.493 47.7748 105.28 46.9132C105.066 46.267 104.958 45.7285 104.958 45.5131L110.738 43.8976L111.808 47.7748ZM106.243 46.5901C106.243 46.6978 106.35 46.9132 106.35 47.1287C106.456 47.4517 106.67 47.7748 106.885 47.8825C107.099 47.9902 107.313 48.098 107.634 47.9902C107.955 47.8825 108.062 47.7748 108.169 47.4518C108.276 47.1287 108.276 46.8055 108.169 46.4824C108.169 46.3748 108.062 46.1593 107.955 46.0516L106.243 46.5901ZM112.771 52.5138L111.058 52.7293C110.095 52.837 109.132 52.9447 108.383 53.0524C109.132 53.2678 109.989 53.5909 110.63 53.8063L113.092 54.7756L113.306 56.1757L107.313 56.9296L107.206 55.6372L108.918 55.4218C109.881 55.3141 110.63 55.2064 111.487 55.2064C110.738 54.991 109.881 54.7756 109.239 54.4525L106.992 53.4832L106.778 51.9753L112.771 51.2214V52.5138ZM112.985 59.5145C113.199 59.9454 113.413 60.5916 113.413 61.4532C113.413 62.7457 112.664 63.4996 111.808 63.4996C111.058 63.4996 110.523 62.9611 110.416 62.3149C110.309 63.0688 109.774 63.715 108.918 63.715C107.634 63.715 107.099 62.3149 107.206 61.2378C107.206 60.5916 107.313 59.9454 107.634 59.4068L108.704 59.73C108.597 59.9454 108.383 60.5916 108.276 61.1301C108.276 61.7763 108.49 62.2072 109.025 62.2072C109.667 62.2072 109.881 61.5609 109.881 60.9147V60.3762H110.844V60.9147C110.844 61.5609 111.058 61.9917 111.593 61.9917C112.022 61.9917 112.236 61.6686 112.236 61.1301C112.236 60.6993 112.022 60.1608 111.915 59.8377L112.985 59.5145ZM112.771 68.2385L110.524 67.9154L110.203 70.1772L112.45 70.5003L112.236 71.7928L106.35 70.8234L106.564 69.531L109.025 69.9618L109.346 67.7L106.885 67.2692L107.099 65.8691L112.985 66.8384L112.771 68.2385ZM106.992 77.5013L107.634 75.3472L106.243 74.9161L105.493 77.286L104.423 76.9627L105.6 73.3006L111.273 75.1312L110.203 78.6855L109.132 78.363L109.881 76.101L108.704 75.6697L108.062 77.8245L106.992 77.5013ZM101.855 83.2095C101.855 82.8862 101.961 82.3477 102.283 81.7012C103.139 79.7625 104.744 79.44 106.35 80.0857C108.169 80.9475 108.597 82.7783 107.848 84.3938C107.527 85.0403 107.205 85.4707 106.992 85.5788L106.135 84.825C106.35 84.6097 106.67 84.2865 106.778 83.8552C107.205 82.8862 106.992 81.8092 105.815 81.2708C104.744 80.7322 103.781 81.0555 103.246 82.1325C103.032 82.4557 102.925 82.9942 102.925 83.2095H101.855ZM101.106 87.1942L100.035 86.0092L100.784 84.825L104.744 89.6715L103.781 91.179L97.7881 89.3482L98.6438 88.164L100.142 88.5945L101.106 87.1942ZM101.106 89.025L102.39 89.4563C102.711 89.5635 103.139 89.6715 103.567 89.8867C103.353 89.5635 103.032 89.241 102.711 89.025L101.855 88.056L101.106 89.025ZM12.384 85.794L17.5211 82.671L18.1633 83.8552L13.9893 86.3325L15.0596 88.164L19.2335 85.6868L19.8756 86.871L14.7386 89.9947L12.384 85.794Z" fill="#ECECE7"/>
</g>
<defs>
<clipPath id="clip0_63_14">
<rect width="119.255" height="120" fill="white"/>
</clipPath>
</defs>
</svg>
