<svg width="184" height="36" viewBox="0 0 184 36" fill="none" xmlns="http://www.w3.org/2000/svg">
<path d="M44.5086 22.5709H39.028L38.0092 25.8449H34.9939L39.8634 10.963H43.8363L48.6446 25.8449H45.5273L44.5086 22.5709ZM39.8634 19.7858H43.6733L41.7785 13.5354L39.8634 19.7858Z" fill="white"/>
<path d="M56.3837 17.4686H53.5109V21.6355C53.5109 22.2874 53.6196 22.7623 53.8369 23.06C54.0542 23.3575 54.4957 23.5064 55.1613 23.5064C55.4872 23.5064 55.8404 23.4355 56.2207 23.2937L56.6078 25.5261C56.2954 25.7245 55.9422 25.8662 55.5483 25.9512C55.168 26.0363 54.7538 26.0788 54.3055 26.0788C53.0151 26.0788 52.0983 25.7812 51.555 25.1859C51.0117 24.5765 50.7401 23.6977 50.7401 22.5497V17.4686H48.8452V15.0025H50.7401V12.7064L53.5109 11.7284V15.0025H56.3837V17.4686Z" fill="white"/>
<path d="M63.1098 23.6765C63.9519 23.6765 64.5835 23.4143 65.0045 22.8899C65.4257 22.3655 65.6362 21.5434 65.6362 20.4237C65.6362 19.2758 65.4325 18.4466 65.025 17.9363C64.6174 17.412 63.9791 17.1497 63.1098 17.1497C62.2949 17.1497 61.6632 17.412 61.215 17.9363C60.7803 18.4608 60.563 19.2899 60.563 20.4237C60.563 21.5576 60.794 22.3867 61.2558 22.9112C61.7176 23.4214 62.3355 23.6765 63.1098 23.6765ZM63.1098 26.0789C61.3576 26.0789 60.0129 25.6183 59.0757 24.697C58.1385 23.7758 57.6699 22.3513 57.6699 20.4237C57.6699 18.5671 58.152 17.1639 59.1164 16.2143C60.0808 15.2505 61.4119 14.7687 63.1098 14.7687C64.8348 14.7687 66.1659 15.2434 67.1031 16.193C68.054 17.1285 68.5293 18.5388 68.5293 20.4237C68.5293 22.2521 68.0607 23.6553 67.1235 24.6332C66.1863 25.597 64.8484 26.0789 63.1098 26.0789Z" fill="white"/>
<path d="M85.7142 25.8447H82.9636V19.7219C82.9636 18.914 82.8618 18.3046 82.6581 17.8935C82.4543 17.4826 82.0536 17.277 81.456 17.277C81.0757 17.277 80.7564 17.355 80.4984 17.5109C80.2539 17.6668 80.0501 17.8864 79.8872 18.1699C79.7378 18.4534 79.6291 18.8006 79.5612 19.2117C79.5068 19.6085 79.4797 20.055 79.4797 20.551V25.8447H76.7292V19.7219C76.7292 18.9707 76.6205 18.3755 76.4032 17.9361C76.1994 17.4967 75.7988 17.277 75.2011 17.277C74.8208 17.277 74.5015 17.355 74.2435 17.5109C73.999 17.6527 73.8021 17.8652 73.6527 18.1487C73.5033 18.4322 73.3946 18.7794 73.3267 19.1904C73.2724 19.5872 73.2452 20.0408 73.2452 20.551V25.8447H70.4946V15.0023H73.1433V16.618H73.1841C73.5372 15.966 73.9719 15.5054 74.488 15.2361C75.0178 14.9527 75.6221 14.8109 76.3014 14.8109C77.0348 14.8109 77.646 14.981 78.135 15.3211C78.6239 15.6613 78.9704 16.1998 79.174 16.9368C79.568 16.1715 80.0366 15.6259 80.5799 15.2998C81.1232 14.9739 81.7615 14.8109 82.4951 14.8109C83.636 14.8109 84.4578 15.151 84.9603 15.8314C85.4629 16.4975 85.7142 17.5038 85.7142 18.8502V25.8447Z" fill="white"/>
<path d="M88.2463 22.3157C88.4093 22.4291 88.6131 22.5496 88.8576 22.6772C89.1156 22.7906 89.4009 22.904 89.7134 23.0174C90.0257 23.1165 90.3517 23.2015 90.6913 23.2724C91.0444 23.3291 91.4044 23.3575 91.7711 23.3575C92.5725 23.3575 93.1565 23.2086 93.5233 22.9111C93.9036 22.6134 94.0938 22.1883 94.0938 21.6354C94.0938 21.3236 94.0462 21.0685 93.9511 20.8701C93.8696 20.6575 93.7338 20.4732 93.5436 20.3174C93.3671 20.1615 93.1293 20.0268 92.8305 19.9134C92.5317 19.7858 92.1718 19.6441 91.7507 19.4883L91.2618 19.3182C90.1344 18.9213 89.3058 18.3756 88.7761 17.6812C88.26 16.9866 88.0019 16.1149 88.0019 15.0661C88.0019 14.3858 88.1242 13.7764 88.3686 13.2378C88.6267 12.6992 88.9798 12.2457 89.4281 11.8772C89.8764 11.4945 90.3992 11.2039 90.9968 11.0055C91.6081 10.8071 92.2737 10.7079 92.9935 10.7079C93.9308 10.7079 94.7322 10.7929 95.3977 10.963C96.0768 11.1189 96.6201 11.289 97.0276 11.4732L96.3146 14.1945C95.812 13.9536 95.289 13.7764 94.7457 13.663C94.2161 13.5496 93.727 13.4929 93.2788 13.4929C92.586 13.4929 92.0564 13.6134 91.6896 13.8544C91.3228 14.0812 91.1395 14.4425 91.1395 14.9386C91.1395 15.1937 91.1735 15.4134 91.2414 15.5977C91.3229 15.7678 91.4587 15.9307 91.6489 16.0866C91.8526 16.2283 92.1242 16.3772 92.4639 16.5331C92.8034 16.689 93.238 16.859 93.7678 17.0433L94.2974 17.2347C94.9223 17.4615 95.4385 17.7236 95.846 18.0213C96.2534 18.3189 96.5726 18.6448 96.8036 18.9992C97.0344 19.3536 97.1974 19.7362 97.2925 20.1473C97.3876 20.5582 97.4352 20.9906 97.4352 21.4441C97.4352 22.1953 97.2992 22.8615 97.0276 23.4425C96.7696 24.0236 96.4028 24.5126 95.9275 24.9094C95.452 25.3063 94.8884 25.604 94.2364 25.8024C93.598 26.0008 92.8985 26.1 92.1379 26.1C91.7032 26.1 91.2686 26.0716 90.8338 26.0149C90.3992 25.9582 89.985 25.8874 89.5911 25.8024C89.1971 25.7032 88.8304 25.5898 88.4908 25.4622C88.1513 25.3347 87.8593 25.2 87.6147 25.0582L88.2463 22.3157Z" fill="white"/>
<path d="M102.235 19.637L105.882 15.0024H109.081L105.006 19.7433L109.509 25.8448H106.269L103.152 21.4653L102.235 22.6134V25.8448H99.4644V9.90002H102.235V19.637Z" fill="white"/>
<path d="M113.882 11.5369C113.882 12.033 113.74 12.4227 113.454 12.7062C113.17 12.9755 112.749 13.1102 112.192 13.1102C111.662 13.1102 111.248 12.9755 110.949 12.7062C110.664 12.4227 110.521 12.033 110.521 11.5369C110.521 11.0692 110.664 10.7007 110.949 10.4314C111.248 10.1621 111.662 10.0275 112.192 10.0275C112.749 10.0275 113.17 10.1621 113.454 10.4314C113.74 10.6865 113.882 11.055 113.882 11.5369ZM113.578 25.8447H110.806V15.0023H113.578V25.8447Z" fill="white"/>
<path d="M118.829 25.8448H116.058V9.90002H118.829V25.8448Z" fill="white"/>
<path d="M124.042 25.8448H121.271V9.90002H124.042V25.8448Z" fill="white"/>
<path d="M126.463 23.1875C126.939 23.4568 127.422 23.634 127.911 23.7191C128.399 23.7899 128.895 23.8254 129.397 23.8254C129.968 23.8254 130.376 23.7332 130.62 23.549C130.878 23.3505 131.007 23.0671 131.007 22.6986C131.007 22.4151 130.885 22.1955 130.64 22.0396C130.396 21.8836 130.084 21.7419 129.703 21.6143C129.336 21.4867 128.935 21.3521 128.501 21.2104C128.066 21.0687 127.659 20.8773 127.278 20.6363C126.911 20.3813 126.607 20.0553 126.362 19.6584C126.117 19.2616 125.995 18.7371 125.995 18.0852C125.995 17.093 126.328 16.2923 126.993 15.6829C127.672 15.0733 128.78 14.7687 130.314 14.7687C130.831 14.7687 131.387 14.8183 131.984 14.9175C132.583 15.0026 133.078 15.1229 133.472 15.2789L133.004 17.4262C132.65 17.2986 132.25 17.1994 131.802 17.1285C131.353 17.0576 130.912 17.0222 130.477 17.0222C129.404 17.0222 128.868 17.3269 128.868 17.9363C128.868 18.2198 128.99 18.4325 129.235 18.5742C129.478 18.7159 129.784 18.8434 130.151 18.9568C130.532 19.0702 130.939 19.1978 131.374 19.3396C131.808 19.4671 132.209 19.6584 132.576 19.9135C132.956 20.1545 133.269 20.4875 133.513 20.9128C133.758 21.3237 133.88 21.8765 133.88 22.571C133.88 23.0813 133.799 23.5561 133.635 23.9955C133.472 24.4206 133.207 24.7892 132.841 25.1009C132.488 25.4128 132.026 25.6537 131.455 25.8237C130.899 25.9938 130.226 26.0789 129.438 26.0789C128.922 26.0789 128.365 26.0151 127.767 25.8875C127.184 25.76 126.593 25.5758 125.995 25.3348L126.463 23.1875Z" fill="white"/>
<path d="M12.7301 28.8704C12.4894 29.0452 12.2446 29.2161 12.0058 29.3848C9.96964 30.9129 8.20305 32.7684 6.77856 34.8749H18.6776C17.2317 32.7369 15.4324 30.8585 13.3565 29.3197C13.1525 29.1713 12.9484 29.0249 12.7301 28.8744" fill="#025EA1"/>
<path d="M12.7301 28.8704C12.4894 29.0452 12.2446 29.2161 12.0058 29.3848C9.96964 30.9129 8.20305 32.7684 6.77856 34.8749H18.6776C17.2317 32.7369 15.4324 30.8585 13.3565 29.3197C13.1525 29.1713 12.9484 29.0249 12.7301 28.8744" stroke="#025EA1" stroke-width="0.5" stroke-miterlimit="10"/>
<path d="M13.1442 1.125H1.15951C1.15951 1.125 1.12891 1.59471 1.12891 2.4162C1.12891 1.97902 1.13911 1.65165 1.1493 1.4483C2.62936 4.10321 4.42708 6.56942 6.50307 8.79286L6.56225 8.8559C6.93358 8.31706 7.32328 7.77414 7.72522 7.22919C9.35121 5.04225 11.1643 2.99987 13.1442 1.125Z" fill="#F0A600"/>
<path d="M13.1442 1.125H1.15951C1.15951 1.125 1.12891 1.59471 1.12891 2.4162C1.12891 1.97902 1.13911 1.65165 1.1493 1.4483C2.62936 4.10321 4.42708 6.56941 6.50307 8.79286L6.56225 8.8559C6.93358 8.31706 7.32328 7.77414 7.72522 7.22919C9.35121 5.04225 11.1643 2.99987 13.1442 1.125Z" stroke="#F0A600" stroke-width="0.5" stroke-miterlimit="10"/>
<path d="M1.15957 1.44824C1.14936 1.65159 1.13916 1.97896 1.13916 2.41614C1.15292 6.64977 1.79088 10.8584 3.03257 14.9072C4.04627 12.7987 5.22656 10.7738 6.5623 8.85178L6.50313 8.78873C4.43098 6.56598 2.63672 4.10119 1.15957 1.44824Z" fill="#FFB200"/>
<path d="M1.15957 1.44824C1.14936 1.65159 1.13916 1.97896 1.13916 2.41614C1.15292 6.64977 1.79088 10.8584 3.03257 14.9072C4.04627 12.7987 5.22656 10.7738 6.5623 8.85178L6.50313 8.78873C4.43098 6.56599 2.63672 4.10119 1.15957 1.44824Z" stroke="#FFB200" stroke-width="0.5" stroke-miterlimit="10"/>
<path fill-rule="evenodd" clip-rule="evenodd" d="M6.56209 8.85583C5.22654 10.7766 4.04625 12.8001 3.03236 14.9072L2.89771 14.47C3.86684 17.764 5.38892 21.2107 7.82504 24.277C10.4448 22.6889 13.4807 19.9337 16.3535 16.3976C13.089 14.771 9.67152 12.2008 6.56005 8.85583" fill="#FACA30"/>
<path d="M6.56209 8.85583C5.22655 10.7766 4.04625 12.8001 3.03236 14.9072L2.89771 14.47C3.86684 17.764 5.38892 21.2107 7.82504 24.277C10.4448 22.6889 13.4807 19.9337 16.3535 16.3976C13.089 14.771 9.67152 12.2008 6.56005 8.85583" stroke="#FACA30" stroke-width="0.5" stroke-miterlimit="10"/>
<path d="M24.2987 1.43616C23.6499 4.97017 21.2872 9.87467 17.6657 14.7182C17.2331 15.2956 16.7965 15.8589 16.3538 16.3978C17.9012 17.1935 19.5478 17.7809 21.2505 18.1445C24.4986 10.6087 24.3477 2.78835 24.2926 1.43616" fill="#6CACE4"/>
<path d="M24.2987 1.43616C23.6499 4.97017 21.2872 9.87467 17.6657 14.7182C17.2331 15.2956 16.7965 15.8589 16.3538 16.3978C17.9012 17.1935 19.5478 17.7809 21.2505 18.1445C24.4986 10.6087 24.3477 2.78835 24.2926 1.43616" stroke="#6CACE4" stroke-width="0.5" stroke-miterlimit="10"/>
<path d="M16.3537 16.3977C13.4809 19.9338 10.4368 22.689 7.8252 24.2771C9.21665 26.0401 10.8676 27.5831 12.7219 28.8543C16.5617 26.2332 19.1366 22.6788 20.8607 18.9923C20.9953 18.7117 21.1219 18.4291 21.2442 18.1444C19.5416 17.7809 17.895 17.1935 16.3476 16.3977" fill="#025EA1"/>
<path d="M16.3537 16.3977C13.4809 19.9338 10.4368 22.689 7.8252 24.2771C9.21665 26.0401 10.8676 27.5831 12.7219 28.8543C16.5617 26.2332 19.1366 22.6788 20.8607 18.9923C20.9953 18.7117 21.1219 18.4291 21.2442 18.1444C19.5416 17.7809 17.895 17.1935 16.3476 16.3977" stroke="#025EA1" stroke-width="0.5" stroke-miterlimit="10"/>
</svg>
